# MagicaVoxel @ Ephtracy

# group
g MachineGunTruck-1

# material
mtllib MachineGunTruck-1.mtl
usemtl palette

# normals
vn -1 0 0
vn 1 0 0
vn 0 0 1
vn 0 0 -1
vn 0 -1 0
vn 0 1 0

# texcoords
vt 0.970703 0.5
vt 0.974609 0.5
vt 0.978516 0.5
vt 0.990234 0.5

# verts
v -5.5 3 0.5
v -5.5 3 -0.5
v -5.5 4 1.5
v -5.5 4 0.5
v -5.5 4 -0.5
v -5.5 4 -1.5
v -5.5 7 1.5
v -5.5 7 0.5
v -5.5 7 -0.5
v -5.5 7 -1.5
v -5.5 8 0.5
v -5.5 8 -0.5
v -4.5 1 0.5
v -4.5 1 -0.5
v -4.5 2 1.5
v -4.5 2 0.5
v -4.5 2 -0.5
v -4.5 2 -1.5
v -4.5 3 0.5
v -4.5 3 -0.5
v -4.5 4 1.5
v -4.5 4 0.5
v -4.5 4 -0.5
v -4.5 4 -1.5
v -4.5 7 1.5
v -4.5 7 0.5
v -4.5 7 -0.5
v -4.5 7 -1.5
v -4.5 8 0.5
v -4.5 8 -0.5
v -4.5 9 1.5
v -4.5 9 0.5
v -4.5 9 -0.5
v -4.5 9 -1.5
v -4.5 10 0.5
v -4.5 10 -0.5
v -3.5 1 1.5
v -3.5 1 0.5
v -3.5 1 -0.5
v -3.5 1 -1.5
v -3.5 2 1.5
v -3.5 2 0.5
v -3.5 2 -0.5
v -3.5 2 -1.5
v -3.5 9 1.5
v -3.5 9 0.5
v -3.5 9 -0.5
v -3.5 9 -1.5
v -3.5 10 1.5
v -3.5 10 0.5
v -3.5 10 -0.5
v -3.5 10 -1.5
v -2.5 0 0.5
v -2.5 0 -0.5
v -2.5 1 0.5
v -2.5 1 -0.5
v -2.5 10 0.5
v -2.5 10 -0.5
v -2.5 11 0.5
v -2.5 11 -0.5
v -1.5 0 1.5
v -1.5 0 0.5
v -1.5 0 -0.5
v -1.5 0 -1.5
v -1.5 1 1.5
v -1.5 1 0.5
v -1.5 1 -0.5
v -1.5 1 -1.5
v -1.5 10 1.5
v -1.5 10 0.5
v -1.5 10 -0.5
v -1.5 10 -1.5
v -1.5 11 1.5
v -1.5 11 0.5
v -1.5 11 -0.5
v -1.5 11 -1.5
v 1.5 0 1.5
v 1.5 0 0.5
v 1.5 0 -0.5
v 1.5 0 -1.5
v 1.5 1 1.5
v 1.5 1 0.5
v 1.5 1 -0.5
v 1.5 1 -1.5
v 1.5 10 1.5
v 1.5 10 0.5
v 1.5 10 -0.5
v 1.5 10 -1.5
v 1.5 11 1.5
v 1.5 11 0.5
v 1.5 11 -0.5
v 1.5 11 -1.5
v 2.5 0 0.5
v 2.5 0 -0.5
v 2.5 1 0.5
v 2.5 1 -0.5
v 2.5 10 0.5
v 2.5 10 -0.5
v 2.5 11 0.5
v 2.5 11 -0.5
v 3.5 1 1.5
v 3.5 1 0.5
v 3.5 1 -0.5
v 3.5 1 -1.5
v 3.5 2 1.5
v 3.5 2 0.5
v 3.5 2 -0.5
v 3.5 2 -1.5
v 3.5 9 1.5
v 3.5 9 0.5
v 3.5 9 -0.5
v 3.5 9 -1.5
v 3.5 10 1.5
v 3.5 10 0.5
v 3.5 10 -0.5
v 3.5 10 -1.5
v 4.5 1 0.5
v 4.5 1 -0.5
v 4.5 2 1.5
v 4.5 2 0.5
v 4.5 2 -0.5
v 4.5 2 -1.5
v 4.5 3 0.5
v 4.5 3 -0.5
v 4.5 4 1.5
v 4.5 4 0.5
v 4.5 4 -0.5
v 4.5 4 -1.5
v 4.5 7 1.5
v 4.5 7 0.5
v 4.5 7 -0.5
v 4.5 7 -1.5
v 4.5 8 0.5
v 4.5 8 -0.5
v 4.5 9 1.5
v 4.5 9 0.5
v 4.5 9 -0.5
v 4.5 9 -1.5
v 4.5 10 0.5
v 4.5 10 -0.5
v 5.5 3 0.5
v 5.5 3 -0.5
v 5.5 4 1.5
v 5.5 4 0.5
v 5.5 4 -0.5
v 5.5 4 -1.5
v 5.5 7 1.5
v 5.5 7 0.5
v 5.5 7 -0.5
v 5.5 7 -1.5
v 5.5 8 0.5
v 5.5 8 -0.5
v -5.5 4 1.5
v -5.5 7 1.5
v -4.5 2 1.5
v -4.5 4 1.5
v -4.5 7 1.5
v -4.5 9 1.5
v -3.5 1 1.5
v -3.5 2 1.5
v -3.5 9 1.5
v -3.5 10 1.5
v -2.5 4 1.5
v -2.5 5 1.5
v -2.5 6 1.5
v -2.5 7 1.5
v -1.5 0 1.5
v -1.5 1 1.5
v -1.5 3 1.5
v -1.5 4 1.5
v -1.5 5 1.5
v -1.5 6 1.5
v -1.5 7 1.5
v -1.5 8 1.5
v -1.5 10 1.5
v -1.5 11 1.5
v -0.5 3 1.5
v -0.5 4 1.5
v -0.5 5 1.5
v -0.5 6 1.5
v -0.5 7 1.5
v -0.5 8 1.5
v 0.5 3 1.5
v 0.5 4 1.5
v 0.5 5 1.5
v 0.5 6 1.5
v 0.5 7 1.5
v 0.5 8 1.5
v 1.5 0 1.5
v 1.5 1 1.5
v 1.5 3 1.5
v 1.5 4 1.5
v 1.5 5 1.5
v 1.5 6 1.5
v 1.5 7 1.5
v 1.5 8 1.5
v 1.5 10 1.5
v 1.5 11 1.5
v 2.5 4 1.5
v 2.5 5 1.5
v 2.5 6 1.5
v 2.5 7 1.5
v 3.5 1 1.5
v 3.5 2 1.5
v 3.5 9 1.5
v 3.5 10 1.5
v 4.5 2 1.5
v 4.5 4 1.5
v 4.5 7 1.5
v 4.5 9 1.5
v 5.5 4 1.5
v 5.5 7 1.5
v -5.5 3 0.5
v -5.5 4 0.5
v -5.5 7 0.5
v -5.5 8 0.5
v -4.5 1 0.5
v -4.5 2 0.5
v -4.5 3 0.5
v -4.5 4 0.5
v -4.5 7 0.5
v -4.5 8 0.5
v -4.5 9 0.5
v -4.5 10 0.5
v -3.5 1 0.5
v -3.5 2 0.5
v -3.5 9 0.5
v -3.5 10 0.5
v -2.5 0 0.5
v -2.5 1 0.5
v -2.5 10 0.5
v -2.5 11 0.5
v -1.5 0 0.5
v -1.5 1 0.5
v -1.5 10 0.5
v -1.5 11 0.5
v 1.5 0 0.5
v 1.5 1 0.5
v 1.5 10 0.5
v 1.5 11 0.5
v 2.5 0 0.5
v 2.5 1 0.5
v 2.5 10 0.5
v 2.5 11 0.5
v 3.5 1 0.5
v 3.5 2 0.5
v 3.5 9 0.5
v 3.5 10 0.5
v 4.5 1 0.5
v 4.5 2 0.5
v 4.5 3 0.5
v 4.5 4 0.5
v 4.5 7 0.5
v 4.5 8 0.5
v 4.5 9 0.5
v 4.5 10 0.5
v 5.5 3 0.5
v 5.5 4 0.5
v 5.5 7 0.5
v 5.5 8 0.5
v -5.5 3 -0.5
v -5.5 4 -0.5
v -5.5 7 -0.5
v -5.5 8 -0.5
v -4.5 1 -0.5
v -4.5 2 -0.5
v -4.5 3 -0.5
v -4.5 4 -0.5
v -4.5 7 -0.5
v -4.5 8 -0.5
v -4.5 9 -0.5
v -4.5 10 -0.5
v -3.5 1 -0.5
v -3.5 2 -0.5
v -3.5 9 -0.5
v -3.5 10 -0.5
v -2.5 0 -0.5
v -2.5 1 -0.5
v -2.5 10 -0.5
v -2.5 11 -0.5
v -1.5 0 -0.5
v -1.5 1 -0.5
v -1.5 10 -0.5
v -1.5 11 -0.5
v 1.5 0 -0.5
v 1.5 1 -0.5
v 1.5 10 -0.5
v 1.5 11 -0.5
v 2.5 0 -0.5
v 2.5 1 -0.5
v 2.5 10 -0.5
v 2.5 11 -0.5
v 3.5 1 -0.5
v 3.5 2 -0.5
v 3.5 9 -0.5
v 3.5 10 -0.5
v 4.5 1 -0.5
v 4.5 2 -0.5
v 4.5 3 -0.5
v 4.5 4 -0.5
v 4.5 7 -0.5
v 4.5 8 -0.5
v 4.5 9 -0.5
v 4.5 10 -0.5
v 5.5 3 -0.5
v 5.5 4 -0.5
v 5.5 7 -0.5
v 5.5 8 -0.5
v -5.5 4 -1.5
v -5.5 7 -1.5
v -4.5 2 -1.5
v -4.5 4 -1.5
v -4.5 7 -1.5
v -4.5 9 -1.5
v -3.5 1 -1.5
v -3.5 2 -1.5
v -3.5 9 -1.5
v -3.5 10 -1.5
v -2.5 4 -1.5
v -2.5 5 -1.5
v -2.5 6 -1.5
v -2.5 7 -1.5
v -1.5 0 -1.5
v -1.5 1 -1.5
v -1.5 3 -1.5
v -1.5 4 -1.5
v -1.5 5 -1.5
v -1.5 6 -1.5
v -1.5 7 -1.5
v -1.5 8 -1.5
v -1.5 10 -1.5
v -1.5 11 -1.5
v -0.5 3 -1.5
v -0.5 4 -1.5
v -0.5 5 -1.5
v -0.5 6 -1.5
v -0.5 7 -1.5
v -0.5 8 -1.5
v 0.5 3 -1.5
v 0.5 4 -1.5
v 0.5 5 -1.5
v 0.5 6 -1.5
v 0.5 7 -1.5
v 0.5 8 -1.5
v 1.5 0 -1.5
v 1.5 1 -1.5
v 1.5 3 -1.5
v 1.5 4 -1.5
v 1.5 5 -1.5
v 1.5 6 -1.5
v 1.5 7 -1.5
v 1.5 8 -1.5
v 1.5 10 -1.5
v 1.5 11 -1.5
v 2.5 4 -1.5
v 2.5 5 -1.5
v 2.5 6 -1.5
v 2.5 7 -1.5
v 3.5 1 -1.5
v 3.5 2 -1.5
v 3.5 9 -1.5
v 3.5 10 -1.5
v 4.5 2 -1.5
v 4.5 4 -1.5
v 4.5 7 -1.5
v 4.5 9 -1.5
v 5.5 4 -1.5
v 5.5 7 -1.5
v -1.5 0 1.5
v 1.5 0 1.5
v -2.5 0 0.5
v -1.5 0 0.5
v 1.5 0 0.5
v 2.5 0 0.5
v -2.5 0 -0.5
v -1.5 0 -0.5
v 1.5 0 -0.5
v 2.5 0 -0.5
v -1.5 0 -1.5
v 1.5 0 -1.5
v -3.5 1 1.5
v -1.5 1 1.5
v 1.5 1 1.5
v 3.5 1 1.5
v -4.5 1 0.5
v -3.5 1 0.5
v -2.5 1 0.5
v -1.5 1 0.5
v 1.5 1 0.5
v 2.5 1 0.5
v 3.5 1 0.5
v 4.5 1 0.5
v -4.5 1 -0.5
v -3.5 1 -0.5
v -2.5 1 -0.5
v -1.5 1 -0.5
v 1.5 1 -0.5
v 2.5 1 -0.5
v 3.5 1 -0.5
v 4.5 1 -0.5
v -3.5 1 -1.5
v -1.5 1 -1.5
v 1.5 1 -1.5
v 3.5 1 -1.5
v -4.5 2 1.5
v -3.5 2 1.5
v 3.5 2 1.5
v 4.5 2 1.5
v -4.5 2 0.5
v -3.5 2 0.5
v 3.5 2 0.5
v 4.5 2 0.5
v -4.5 2 -0.5
v -3.5 2 -0.5
v 3.5 2 -0.5
v 4.5 2 -0.5
v -4.5 2 -1.5
v -3.5 2 -1.5
v 3.5 2 -1.5
v 4.5 2 -1.5
v -5.5 3 0.5
v -4.5 3 0.5
v 4.5 3 0.5
v 5.5 3 0.5
v -5.5 3 -0.5
v -4.5 3 -0.5
v 4.5 3 -0.5
v 5.5 3 -0.5
v -5.5 4 1.5
v -4.5 4 1.5
v 4.5 4 1.5
v 5.5 4 1.5
v -5.5 4 0.5
v -4.5 4 0.5
v 4.5 4 0.5
v 5.5 4 0.5
v -5.5 4 -0.5
v -4.5 4 -0.5
v 4.5 4 -0.5
v 5.5 4 -0.5
v -5.5 4 -1.5
v -4.5 4 -1.5
v 4.5 4 -1.5
v 5.5 4 -1.5
v -5.5 7 1.5
v -4.5 7 1.5
v 4.5 7 1.5
v 5.5 7 1.5
v -5.5 7 0.5
v -4.5 7 0.5
v 4.5 7 0.5
v 5.5 7 0.5
v -5.5 7 -0.5
v -4.5 7 -0.5
v 4.5 7 -0.5
v 5.5 7 -0.5
v -5.5 7 -1.5
v -4.5 7 -1.5
v 4.5 7 -1.5
v 5.5 7 -1.5
v -5.5 8 0.5
v -4.5 8 0.5
v 4.5 8 0.5
v 5.5 8 0.5
v -5.5 8 -0.5
v -4.5 8 -0.5
v 4.5 8 -0.5
v 5.5 8 -0.5
v -4.5 9 1.5
v -3.5 9 1.5
v 3.5 9 1.5
v 4.5 9 1.5
v -4.5 9 0.5
v -3.5 9 0.5
v 3.5 9 0.5
v 4.5 9 0.5
v -4.5 9 -0.5
v -3.5 9 -0.5
v 3.5 9 -0.5
v 4.5 9 -0.5
v -4.5 9 -1.5
v -3.5 9 -1.5
v 3.5 9 -1.5
v 4.5 9 -1.5
v -3.5 10 1.5
v -1.5 10 1.5
v 1.5 10 1.5
v 3.5 10 1.5
v -4.5 10 0.5
v -3.5 10 0.5
v -2.5 10 0.5
v -1.5 10 0.5
v 1.5 10 0.5
v 2.5 10 0.5
v 3.5 10 0.5
v 4.5 10 0.5
v -4.5 10 -0.5
v -3.5 10 -0.5
v -2.5 10 -0.5
v -1.5 10 -0.5
v 1.5 10 -0.5
v 2.5 10 -0.5
v 3.5 10 -0.5
v 4.5 10 -0.5
v -3.5 10 -1.5
v -1.5 10 -1.5
v 1.5 10 -1.5
v 3.5 10 -1.5
v -1.5 11 1.5
v 1.5 11 1.5
v -2.5 11 0.5
v -1.5 11 0.5
v 1.5 11 0.5
v 2.5 11 0.5
v -2.5 11 -0.5
v -1.5 11 -0.5
v 1.5 11 -0.5
v 2.5 11 -0.5
v -1.5 11 -1.5
v 1.5 11 -1.5

# faces
f 4/4/1 2/4/1 1/4/1
f 5/4/1 2/4/1 4/4/1
f 7/4/1 4/4/1 3/4/1
f 7/4/1 6/4/1 5/4/1
f 7/4/1 5/4/1 4/4/1
f 8/4/1 6/4/1 7/4/1
f 9/4/1 6/4/1 8/4/1
f 10/4/1 6/4/1 9/4/1
f 11/4/1 9/4/1 8/4/1
f 12/4/1 9/4/1 11/4/1
f 16/4/1 14/4/1 13/4/1
f 17/4/1 14/4/1 16/4/1
f 19/4/1 16/4/1 15/4/1
f 19/4/1 18/4/1 17/4/1
f 19/4/1 17/4/1 16/4/1
f 20/4/1 18/4/1 19/4/1
f 21/4/1 19/4/1 15/4/1
f 22/4/1 19/4/1 21/4/1
f 23/4/1 18/4/1 20/4/1
f 24/4/1 18/4/1 23/4/1
f 29/4/1 26/4/1 25/4/1
f 30/4/1 28/4/1 27/4/1
f 31/4/1 29/4/1 25/4/1
f 31/4/1 30/4/1 29/4/1
f 32/4/1 30/4/1 31/4/1
f 33/4/1 28/4/1 30/4/1
f 33/4/1 30/4/1 32/4/1
f 34/4/1 28/4/1 33/4/1
f 35/4/1 33/4/1 32/4/1
f 36/4/1 33/4/1 35/4/1
f 41/4/1 38/4/1 37/4/1
f 42/4/1 38/4/1 41/4/1
f 43/4/1 40/4/1 39/4/1
f 44/4/1 40/4/1 43/4/1
f 49/4/1 46/4/1 45/4/1
f 50/4/1 46/4/1 49/4/1
f 51/4/1 48/4/1 47/4/1
f 52/4/1 48/4/1 51/4/1
f 55/4/1 54/4/1 53/4/1
f 56/4/1 54/4/1 55/4/1
f 59/4/1 58/4/1 57/4/1
f 60/4/1 58/4/1 59/4/1
f 65/4/1 62/4/1 61/4/1
f 66/4/1 62/4/1 65/4/1
f 67/4/1 64/4/1 63/4/1
f 68/4/1 64/4/1 67/4/1
f 73/4/1 70/4/1 69/4/1
f 74/4/1 70/4/1 73/4/1
f 75/4/1 72/4/1 71/4/1
f 76/4/1 72/4/1 75/4/1
f 77/4/2 78/4/2 81/4/2
f 81/4/2 78/4/2 82/4/2
f 79/4/2 80/4/2 83/4/2
f 83/4/2 80/4/2 84/4/2
f 85/4/2 86/4/2 89/4/2
f 89/4/2 86/4/2 90/4/2
f 87/4/2 88/4/2 91/4/2
f 91/4/2 88/4/2 92/4/2
f 93/4/2 94/4/2 95/4/2
f 95/4/2 94/4/2 96/4/2
f 97/4/2 98/4/2 99/4/2
f 99/4/2 98/4/2 100/4/2
f 101/4/2 102/4/2 105/4/2
f 105/4/2 102/4/2 106/4/2
f 103/4/2 104/4/2 107/4/2
f 107/4/2 104/4/2 108/4/2
f 109/4/2 110/4/2 113/4/2
f 113/4/2 110/4/2 114/4/2
f 111/4/2 112/4/2 115/4/2
f 115/4/2 112/4/2 116/4/2
f 117/4/2 118/4/2 120/4/2
f 120/4/2 118/4/2 121/4/2
f 119/4/2 120/4/2 123/4/2
f 121/4/2 122/4/2 123/4/2
f 120/4/2 121/4/2 123/4/2
f 123/4/2 122/4/2 124/4/2
f 119/4/2 123/4/2 125/4/2
f 125/4/2 123/4/2 126/4/2
f 124/4/2 122/4/2 127/4/2
f 127/4/2 122/4/2 128/4/2
f 129/4/2 130/4/2 133/4/2
f 131/4/2 132/4/2 134/4/2
f 129/4/2 133/4/2 135/4/2
f 133/4/2 134/4/2 135/4/2
f 135/4/2 134/4/2 136/4/2
f 134/4/2 132/4/2 137/4/2
f 136/4/2 134/4/2 137/4/2
f 137/4/2 132/4/2 138/4/2
f 136/4/2 137/4/2 139/4/2
f 139/4/2 137/4/2 140/4/2
f 141/4/2 142/4/2 144/4/2
f 144/4/2 142/4/2 145/4/2
f 143/4/2 144/4/2 147/4/2
f 145/4/2 146/4/2 147/4/2
f 144/4/2 145/4/2 147/4/2
f 147/4/2 146/4/2 148/4/2
f 148/4/2 146/4/2 149/4/2
f 149/4/2 146/4/2 150/4/2
f 148/4/2 149/4/2 151/4/2
f 151/4/2 149/4/2 152/4/2
f 156/4/3 154/4/3 153/4/3
f 157/4/3 154/4/3 156/4/3
f 160/4/3 156/4/3 155/4/3
f 160/4/3 158/4/3 157/4/3
f 160/4/3 157/4/3 156/4/3
f 161/4/3 158/4/3 160/4/3
f 163/4/3 160/4/3 159/4/3
f 163/4/3 162/4/3 161/4/3
f 163/4/3 161/4/3 160/4/3
f 164/4/3 162/4/3 163/4/3
f 165/4/3 162/4/3 164/4/3
f 166/4/3 162/4/3 165/4/3
f 168/4/3 163/4/3 159/4/3
f 169/4/3 163/4/3 168/4/3
f 170/3/3 164/3/3 163/3/3
f 170/4/3 163/4/3 169/4/3
f 171/2/3 165/2/3 164/2/3
f 171/3/3 164/3/3 170/3/3
f 172/3/3 166/3/3 165/3/3
f 172/2/3 165/2/3 171/2/3
f 173/4/3 162/4/3 166/4/3
f 173/3/3 166/3/3 172/3/3
f 174/4/3 162/4/3 173/4/3
f 175/4/3 162/4/3 174/4/3
f 177/4/3 169/4/3 168/4/3
f 177/3/3 170/3/3 169/3/3
f 177/4/3 168/4/3 167/4/3
f 178/2/3 171/2/3 170/2/3
f 178/3/3 170/3/3 177/3/3
f 179/1/3 172/1/3 171/1/3
f 179/2/3 171/2/3 178/2/3
f 180/2/3 173/2/3 172/2/3
f 180/1/3 172/1/3 179/1/3
f 181/3/3 174/3/3 173/3/3
f 181/2/3 173/2/3 180/2/3
f 182/4/3 176/4/3 175/4/3
f 182/3/3 174/3/3 181/3/3
f 182/4/3 175/4/3 174/4/3
f 183/2/3 178/2/3 177/2/3
f 183/4/3 177/4/3 167/4/3
f 184/1/3 181/1/3 180/1/3
f 184/2/3 178/2/3 183/2/3
f 184/1/3 179/1/3 178/1/3
f 184/1/3 180/1/3 179/1/3
f 185/1/3 181/1/3 184/1/3
f 186/1/3 181/1/3 185/1/3
f 187/2/3 182/2/3 181/2/3
f 187/1/3 181/1/3 186/1/3
f 188/4/3 176/4/3 182/4/3
f 188/2/3 182/2/3 187/2/3
f 189/4/3 183/4/3 167/4/3
f 190/4/3 183/4/3 189/4/3
f 191/3/3 184/3/3 183/3/3
f 191/4/3 183/4/3 190/4/3
f 192/2/3 185/2/3 184/2/3
f 192/3/3 184/3/3 191/3/3
f 193/1/3 186/1/3 185/1/3
f 193/2/3 185/2/3 192/2/3
f 194/2/3 187/2/3 186/2/3
f 194/1/3 186/1/3 193/1/3
f 195/3/3 188/3/3 187/3/3
f 195/2/3 187/2/3 194/2/3
f 196/4/3 176/4/3 188/4/3
f 196/3/3 188/3/3 195/3/3
f 197/4/3 176/4/3 196/4/3
f 198/4/3 176/4/3 197/4/3
f 199/3/3 193/3/3 192/3/3
f 199/4/3 192/4/3 191/4/3
f 199/4/3 191/4/3 190/4/3
f 200/2/3 194/2/3 193/2/3
f 200/3/3 193/3/3 199/3/3
f 201/3/3 195/3/3 194/3/3
f 201/2/3 194/2/3 200/2/3
f 202/4/3 197/4/3 196/4/3
f 202/3/3 195/3/3 201/3/3
f 202/4/3 196/4/3 195/4/3
f 203/4/3 200/4/3 199/4/3
f 203/4/3 201/4/3 200/4/3
f 203/4/3 202/4/3 201/4/3
f 203/4/3 199/4/3 190/4/3
f 204/4/3 202/4/3 203/4/3
f 205/4/3 197/4/3 202/4/3
f 205/4/3 202/4/3 204/4/3
f 206/4/3 197/4/3 205/4/3
f 207/4/3 205/4/3 204/4/3
f 208/4/3 205/4/3 207/4/3
f 209/4/3 205/4/3 208/4/3
f 210/4/3 205/4/3 209/4/3
f 211/4/3 209/4/3 208/4/3
f 212/4/3 209/4/3 211/4/3
f 219/4/3 214/4/3 213/4/3
f 220/4/3 214/4/3 219/4/3
f 221/4/3 216/4/3 215/4/3
f 222/4/3 216/4/3 221/4/3
f 225/4/3 218/4/3 217/4/3
f 226/4/3 218/4/3 225/4/3
f 227/4/3 224/4/3 223/4/3
f 228/4/3 224/4/3 227/4/3
f 233/4/3 230/4/3 229/4/3
f 234/4/3 230/4/3 233/4/3
f 235/4/3 232/4/3 231/4/3
f 236/4/3 232/4/3 235/4/3
f 241/4/3 238/4/3 237/4/3
f 242/4/3 238/4/3 241/4/3
f 243/4/3 240/4/3 239/4/3
f 244/4/3 240/4/3 243/4/3
f 249/4/3 246/4/3 245/4/3
f 250/4/3 246/4/3 249/4/3
f 255/4/3 248/4/3 247/4/3
f 256/4/3 248/4/3 255/4/3
f 257/4/3 252/4/3 251/4/3
f 258/4/3 252/4/3 257/4/3
f 259/4/3 254/4/3 253/4/3
f 260/4/3 254/4/3 259/4/3
f 261/4/4 262/4/4 267/4/4
f 267/4/4 262/4/4 268/4/4
f 263/4/4 264/4/4 269/4/4
f 269/4/4 264/4/4 270/4/4
f 265/4/4 266/4/4 273/4/4
f 273/4/4 266/4/4 274/4/4
f 271/4/4 272/4/4 275/4/4
f 275/4/4 272/4/4 276/4/4
f 277/4/4 278/4/4 281/4/4
f 281/4/4 278/4/4 282/4/4
f 279/4/4 280/4/4 283/4/4
f 283/4/4 280/4/4 284/4/4
f 285/4/4 286/4/4 289/4/4
f 289/4/4 286/4/4 290/4/4
f 287/4/4 288/4/4 291/4/4
f 291/4/4 288/4/4 292/4/4
f 293/4/4 294/4/4 297/4/4
f 297/4/4 294/4/4 298/4/4
f 295/4/4 296/4/4 303/4/4
f 303/4/4 296/4/4 304/4/4
f 299/4/4 300/4/4 305/4/4
f 305/4/4 300/4/4 306/4/4
f 301/4/4 302/4/4 307/4/4
f 307/4/4 302/4/4 308/4/4
f 309/4/4 310/4/4 312/4/4
f 312/4/4 310/4/4 313/4/4
f 311/4/4 312/4/4 316/4/4
f 313/4/4 314/4/4 316/4/4
f 312/4/4 313/4/4 316/4/4
f 316/4/4 314/4/4 317/4/4
f 315/4/4 316/4/4 319/4/4
f 317/4/4 318/4/4 319/4/4
f 316/4/4 317/4/4 319/4/4
f 319/4/4 318/4/4 320/4/4
f 320/4/4 318/4/4 321/4/4
f 321/4/4 318/4/4 322/4/4
f 315/4/4 319/4/4 324/4/4
f 324/4/4 319/4/4 325/4/4
f 319/3/4 320/3/4 326/3/4
f 325/4/4 319/4/4 326/4/4
f 320/2/4 321/2/4 327/2/4
f 326/3/4 320/3/4 327/3/4
f 321/3/4 322/3/4 328/3/4
f 327/2/4 321/2/4 328/2/4
f 322/4/4 318/4/4 329/4/4
f 328/3/4 322/3/4 329/3/4
f 329/4/4 318/4/4 330/4/4
f 330/4/4 318/4/4 331/4/4
f 324/4/4 325/4/4 333/4/4
f 325/3/4 326/3/4 333/3/4
f 323/4/4 324/4/4 333/4/4
f 326/2/4 327/2/4 334/2/4
f 333/3/4 326/3/4 334/3/4
f 327/1/4 328/1/4 335/1/4
f 334/2/4 327/2/4 335/2/4
f 328/2/4 329/2/4 336/2/4
f 335/1/4 328/1/4 336/1/4
f 329/3/4 330/3/4 337/3/4
f 336/2/4 329/2/4 337/2/4
f 331/4/4 332/4/4 338/4/4
f 337/3/4 330/3/4 338/3/4
f 330/4/4 331/4/4 338/4/4
f 333/2/4 334/2/4 339/2/4
f 323/4/4 333/4/4 339/4/4
f 336/1/4 337/1/4 340/1/4
f 339/2/4 334/2/4 340/2/4
f 334/1/4 335/1/4 340/1/4
f 335/1/4 336/1/4 340/1/4
f 340/1/4 337/1/4 341/1/4
f 341/1/4 337/1/4 342/1/4
f 337/2/4 338/2/4 343/2/4
f 342/1/4 337/1/4 343/1/4
f 338/4/4 332/4/4 344/4/4
f 343/2/4 338/2/4 344/2/4
f 323/4/4 339/4/4 345/4/4
f 345/4/4 339/4/4 346/4/4
f 339/3/4 340/3/4 347/3/4
f 346/4/4 339/4/4 347/4/4
f 340/2/4 341/2/4 348/2/4
f 347/3/4 340/3/4 348/3/4
f 341/1/4 342/1/4 349/1/4
f 348/2/4 341/2/4 349/2/4
f 342/2/4 343/2/4 350/2/4
f 349/1/4 342/1/4 350/1/4
f 343/3/4 344/3/4 351/3/4
f 350/2/4 343/2/4 351/2/4
f 344/4/4 332/4/4 352/4/4
f 351/3/4 344/3/4 352/3/4
f 352/4/4 332/4/4 353/4/4
f 353/4/4 332/4/4 354/4/4
f 348/3/4 349/3/4 355/3/4
f 347/4/4 348/4/4 355/4/4
f 346/4/4 347/4/4 355/4/4
f 349/2/4 350/2/4 356/2/4
f 355/3/4 349/3/4 356/3/4
f 350/3/4 351/3/4 357/3/4
f 356/2/4 350/2/4 357/2/4
f 352/4/4 353/4/4 358/4/4
f 357/3/4 351/3/4 358/3/4
f 351/4/4 352/4/4 358/4/4
f 355/4/4 356/4/4 359/4/4
f 356/4/4 357/4/4 359/4/4
f 357/4/4 358/4/4 359/4/4
f 346/4/4 355/4/4 359/4/4
f 359/4/4 358/4/4 360/4/4
f 358/4/4 353/4/4 361/4/4
f 360/4/4 358/4/4 361/4/4
f 361/4/4 353/4/4 362/4/4
f 360/4/4 361/4/4 363/4/4
f 363/4/4 361/4/4 364/4/4
f 364/4/4 361/4/4 365/4/4
f 365/4/4 361/4/4 366/4/4
f 364/4/4 365/4/4 367/4/4
f 367/4/4 365/4/4 368/4/4
f 372/4/5 370/4/5 369/4/5
f 373/4/5 370/4/5 372/4/5
f 375/4/5 372/4/5 371/4/5
f 375/4/5 374/4/5 373/4/5
f 375/4/5 373/4/5 372/4/5
f 376/4/5 374/4/5 375/4/5
f 377/4/5 374/4/5 376/4/5
f 378/4/5 374/4/5 377/4/5
f 379/4/5 377/4/5 376/4/5
f 380/4/5 377/4/5 379/4/5
f 386/4/5 382/4/5 381/4/5
f 387/4/5 382/4/5 386/4/5
f 388/4/5 382/4/5 387/4/5
f 389/4/5 384/4/5 383/4/5
f 390/4/5 384/4/5 389/4/5
f 391/4/5 384/4/5 390/4/5
f 393/4/5 386/4/5 385/4/5
f 393/4/5 387/4/5 386/4/5
f 394/4/5 387/4/5 393/4/5
f 395/4/5 387/4/5 394/4/5
f 398/4/5 392/4/5 391/4/5
f 398/4/5 391/4/5 390/4/5
f 399/4/5 392/4/5 398/4/5
f 400/4/5 392/4/5 399/4/5
f 401/4/5 396/4/5 395/4/5
f 401/4/5 395/4/5 394/4/5
f 402/4/5 396/4/5 401/4/5
f 403/4/5 399/4/5 398/4/5
f 403/4/5 398/4/5 397/4/5
f 404/4/5 399/4/5 403/4/5
f 409/4/5 406/4/5 405/4/5
f 410/4/5 406/4/5 409/4/5
f 411/4/5 408/4/5 407/4/5
f 412/4/5 408/4/5 411/4/5
f 417/4/5 414/4/5 413/4/5
f 418/4/5 414/4/5 417/4/5
f 419/4/5 416/4/5 415/4/5
f 420/4/5 416/4/5 419/4/5
f 425/4/5 422/4/5 421/4/5
f 426/4/5 422/4/5 425/4/5
f 427/4/5 424/4/5 423/4/5
f 428/4/5 424/4/5 427/4/5
f 433/4/5 430/4/5 429/4/5
f 434/4/5 430/4/5 433/4/5
f 435/4/5 432/4/5 431/4/5
f 436/4/5 432/4/5 435/4/5
f 441/4/5 438/4/5 437/4/5
f 442/4/5 438/4/5 441/4/5
f 443/4/5 440/4/5 439/4/5
f 444/4/5 440/4/5 443/4/5
f 445/4/6 446/4/6 449/4/6
f 449/4/6 446/4/6 450/4/6
f 447/4/6 448/4/6 451/4/6
f 451/4/6 448/4/6 452/4/6
f 453/4/6 454/4/6 457/4/6
f 457/4/6 454/4/6 458/4/6
f 455/4/6 456/4/6 459/4/6
f 459/4/6 456/4/6 460/4/6
f 461/4/6 462/4/6 465/4/6
f 465/4/6 462/4/6 466/4/6
f 463/4/6 464/4/6 467/4/6
f 467/4/6 464/4/6 468/4/6
f 469/4/6 470/4/6 473/4/6
f 473/4/6 470/4/6 474/4/6
f 471/4/6 472/4/6 475/4/6
f 475/4/6 472/4/6 476/4/6
f 477/4/6 478/4/6 481/4/6
f 481/4/6 478/4/6 482/4/6
f 479/4/6 480/4/6 483/4/6
f 483/4/6 480/4/6 484/4/6
f 485/4/6 486/4/6 490/4/6
f 490/4/6 486/4/6 491/4/6
f 491/4/6 486/4/6 492/4/6
f 487/4/6 488/4/6 493/4/6
f 493/4/6 488/4/6 494/4/6
f 494/4/6 488/4/6 495/4/6
f 489/4/6 490/4/6 497/4/6
f 490/4/6 491/4/6 497/4/6
f 497/4/6 491/4/6 498/4/6
f 498/4/6 491/4/6 499/4/6
f 495/4/6 496/4/6 502/4/6
f 494/4/6 495/4/6 502/4/6
f 502/4/6 496/4/6 503/4/6
f 503/4/6 496/4/6 504/4/6
f 499/4/6 500/4/6 505/4/6
f 498/4/6 499/4/6 505/4/6
f 505/4/6 500/4/6 506/4/6
f 502/4/6 503/4/6 507/4/6
f 501/4/6 502/4/6 507/4/6
f 507/4/6 503/4/6 508/4/6
f 509/4/6 510/4/6 512/4/6
f 512/4/6 510/4/6 513/4/6
f 511/4/6 512/4/6 515/4/6
f 513/4/6 514/4/6 515/4/6
f 512/4/6 513/4/6 515/4/6
f 515/4/6 514/4/6 516/4/6
f 516/4/6 514/4/6 517/4/6
f 517/4/6 514/4/6 518/4/6
f 516/4/6 517/4/6 519/4/6
f 519/4/6 517/4/6 520/4/6
