# MagicaVoxel @ Ephtracy

# group
g FloorD

# material
mtllib FloorD.mtl
usemtl palette

# normals
vn -1 0 0
vn 1 0 0
vn 0 0 1
vn 0 0 -1
vn 0 -1 0
vn 0 1 0

# texcoords
vt 0.00976563 0.5
vt 0.0371094 0.5
vt 0.0683594 0.5

# verts
v -63 0 63
v -63 0 -37
v -63 0 -63
v -63 1 63
v -63 1 -37
v -63 21 34
v -63 21 26
v -63 21 -46
v -63 21 -53
v -63 21 -56
v -63 21 -63
v -63 22 63
v -63 22 34
v -63 22 26
v -63 22 -46
v -63 22 -53
v -63 22 -56
v -63 22 -63
v 63 0 63
v 63 0 26
v 63 0 17
v 63 0 -63
v 63 11 -27
v 63 11 -40
v 63 14 17
v 63 14 -0
v 63 20 52
v 63 20 41
v 63 22 63
v 63 22 52
v 63 22 41
v 63 22 26
v 63 22 17
v 63 22 -0
v 63 22 -27
v 63 22 -40
v 63 22 -63
v -63 0 63
v -63 1 63
v -63 22 63
v -48 0 63
v -48 1 63
v 21 0 63
v 21 1 63
v 51 0 63
v 51 1 63
v 63 0 63
v 63 22 63
v -63 0 -63
v -63 21 -63
v -63 22 -63
v -32 0 -63
v -32 1 -63
v 4 0 -63
v 4 1 -63
v 13 21 -63
v 13 22 -63
v 63 0 -63
v 63 22 -63
v -63 0 63
v -48 0 63
v 21 0 63
v 51 0 63
v 63 0 63
v 2 0 60
v 17 0 60
v -31 0 59
v 2 0 59
v 17 0 59
v 21 0 59
v -48 0 56
v -41 0 56
v -6 0 55
v 8 0 55
v -33 0 54
v -31 0 54
v -24 0 54
v 51 0 54
v 57 0 54
v -48 0 51
v -45 0 51
v -45 0 48
v -41 0 48
v -48 0 45
v -45 0 45
v -45 0 42
v -33 0 42
v -45 0 38
v -36 0 38
v -33 0 38
v 57 0 26
v 63 0 26
v 51 0 25
v 57 0 25
v 21 0 24
v 43 0 24
v 47 0 24
v 8 0 22
v 19 0 22
v -6 0 19
v 6 0 19
v 47 0 17
v 63 0 17
v 43 0 15
v 56 0 15
v -43 0 14
v -36 0 14
v -24 0 8
v -2 0 8
v 6 0 8
v 37 0 8
v 43 0 8
v -17 0 5
v -2 0 5
v -1 0 5
v 6 0 3
v 10 0 3
v 14 0 3
v 19 0 3
v 14 0 2
v 17 0 2
v -43 0 -2
v -17 0 -2
v 17 0 -6
v 26 0 -6
v 30 0 -6
v 37 0 -6
v 21 0 -9
v 26 0 -9
v 30 0 -9
v 36 0 -9
v -17 0 -11
v -1 0 -11
v -5 0 -12
v 9 0 -12
v -43 0 -15
v -12 0 -15
v -48 0 -22
v -43 0 -22
v -5 0 -23
v 9 0 -23
v 36 0 -23
v 56 0 -23
v -61 0 -25
v -43 0 -25
v -14 0 -25
v -12 0 -25
v -14 0 -27
v 4 0 -27
v 37 0 -28
v 58 0 -28
v 21 0 -30
v 26 0 -30
v 36 0 -30
v 16 0 -33
v 23 0 -33
v -63 0 -37
v -61 0 -37
v 10 0 -37
v 16 0 -37
v 23 0 -37
v 26 0 -37
v -8 0 -38
v 4 0 -38
v 9 0 -38
v 9 0 -45
v 16 0 -45
v 23 0 -45
v 37 0 -45
v -61 0 -47
v -53 0 -47
v -45 0 -47
v -32 0 -47
v -14 0 -47
v 9 0 -48
v 16 0 -48
v 23 0 -48
v 37 0 -48
v -53 0 -52
v -45 0 -52
v -8 0 -55
v 4 0 -55
v 9 0 -55
v -45 0 -56
v -32 0 -56
v 37 0 -57
v 58 0 -57
v 16 0 -62
v 23 0 -62
v -63 0 -63
v -32 0 -63
v 4 0 -63
v 63 0 -63
v -63 22 63
v 63 22 63
v -21 22 60
v 22 22 60
v -58 22 53
v -44 22 53
v 22 22 52
v 63 22 52
v -44 22 50
v -21 22 50
v 36 22 50
v -58 22 48
v -52 22 48
v -44 22 48
v 36 22 41
v 63 22 41
v -52 22 36
v 36 22 36
v 38 22 36
v 55 22 36
v -63 22 34
v -34 22 34
v -28 22 27
v 32 22 27
v -63 22 26
v -34 22 26
v 55 22 26
v 63 22 26
v 38 22 24
v 47 22 24
v 55 22 24
v -50 22 19
v -28 22 19
v 4 22 19
v 36 22 19
v 47 22 19
v 4 22 18
v 32 22 18
v 47 22 17
v 63 22 17
v 4 22 13
v 27 22 13
v -50 22 12
v -31 22 12
v 4 22 12
v 36 22 -0
v 63 22 -0
v -57 22 -4
v -31 22 -4
v 27 22 -4
v 35 22 -4
v -57 22 -6
v 35 22 -6
v -49 22 -16
v 38 22 -16
v 11 22 -19
v 38 22 -19
v 54 22 -19
v 54 22 -27
v 63 22 -27
v -62 22 -28
v -49 22 -28
v -7 22 -28
v 11 22 -28
v 0 22 -32
v 11 22 -32
v 23 22 -32
v 23 22 -35
v 53 22 -35
v 54 22 -35
v -62 22 -36
v -7 22 -36
v -9 22 -39
v 0 22 -39
v 23 22 -39
v 47 22 -39
v 53 22 -40
v 63 22 -40
v 0 22 -41
v 23 22 -41
v -63 22 -46
v -9 22 -46
v -9 22 -48
v 38 22 -48
v 47 22 -48
v -63 22 -53
v 38 22 -53
v -63 22 -56
v 13 22 -56
v -63 22 -63
v 13 22 -63
v 63 22 -63

# faces
f 4/3/1 2/3/1 1/3/1
f 5/1/1 3/1/1 2/1/1
f 5/3/1 2/3/1 4/3/1
f 6/1/1 5/1/1 4/1/1
f 7/1/1 5/1/1 6/1/1
f 8/1/1 3/1/1 5/1/1
f 8/1/1 5/1/1 7/1/1
f 9/1/1 3/1/1 8/1/1
f 10/1/1 3/1/1 9/1/1
f 11/1/1 3/1/1 10/1/1
f 12/1/1 6/1/1 4/1/1
f 13/3/1 7/3/1 6/3/1
f 13/1/1 6/1/1 12/1/1
f 14/1/1 8/1/1 7/1/1
f 14/3/1 7/3/1 13/3/1
f 15/2/1 9/2/1 8/2/1
f 15/1/1 8/1/1 14/1/1
f 16/1/1 10/1/1 9/1/1
f 16/2/1 9/2/1 15/2/1
f 17/3/1 11/3/1 10/3/1
f 17/1/1 10/1/1 16/1/1
f 18/3/1 11/3/1 17/3/1
f 21/1/2 22/1/2 23/1/2
f 23/1/2 22/1/2 24/1/2
f 20/3/2 21/3/2 25/3/2
f 21/1/2 23/1/2 25/1/2
f 25/1/2 23/1/2 26/1/2
f 19/1/2 20/1/2 27/1/2
f 27/1/2 20/1/2 28/1/2
f 19/1/2 27/1/2 29/1/2
f 27/2/2 28/2/2 30/2/2
f 29/1/2 27/1/2 30/1/2
f 28/1/2 20/1/2 31/1/2
f 30/2/2 28/2/2 31/2/2
f 20/3/2 25/3/2 32/3/2
f 31/1/2 20/1/2 32/1/2
f 25/2/2 26/2/2 33/2/2
f 32/3/2 25/3/2 33/3/2
f 26/1/2 23/1/2 34/1/2
f 33/2/2 26/2/2 34/2/2
f 23/2/2 24/2/2 35/2/2
f 34/1/2 23/1/2 35/1/2
f 24/1/2 22/1/2 36/1/2
f 35/2/2 24/2/2 36/2/2
f 36/1/2 22/1/2 37/1/2
f 41/3/3 39/3/3 38/3/3
f 42/1/3 40/1/3 39/1/3
f 42/3/3 39/3/3 41/3/3
f 43/1/3 42/1/3 41/1/3
f 44/1/3 40/1/3 42/1/3
f 44/1/3 42/1/3 43/1/3
f 45/3/3 44/3/3 43/3/3
f 46/1/3 40/1/3 44/1/3
f 46/3/3 44/3/3 45/3/3
f 47/1/3 46/1/3 45/1/3
f 48/1/3 40/1/3 46/1/3
f 48/1/3 46/1/3 47/1/3
f 49/1/4 50/1/4 52/1/4
f 52/1/4 50/1/4 53/1/4
f 52/3/4 53/3/4 54/3/4
f 53/1/4 50/1/4 55/1/4
f 54/3/4 53/3/4 55/3/4
f 50/3/4 51/3/4 56/3/4
f 55/1/4 50/1/4 56/1/4
f 54/1/4 55/1/4 56/1/4
f 56/3/4 51/3/4 57/3/4
f 54/1/4 56/1/4 58/1/4
f 56/1/4 57/1/4 58/1/4
f 58/1/4 57/1/4 59/1/4
f 65/1/5 62/1/5 61/1/5
f 66/1/5 62/1/5 65/1/5
f 67/1/5 65/1/5 61/1/5
f 68/2/5 66/2/5 65/2/5
f 68/1/5 65/1/5 67/1/5
f 69/1/5 62/1/5 66/1/5
f 69/2/5 66/2/5 68/2/5
f 70/3/5 63/3/5 62/3/5
f 70/1/5 62/1/5 69/1/5
f 71/3/5 61/3/5 60/3/5
f 71/1/5 67/1/5 61/1/5
f 72/1/5 67/1/5 71/1/5
f 73/2/5 69/2/5 68/2/5
f 73/2/5 68/2/5 67/2/5
f 73/2/5 70/2/5 69/2/5
f 74/2/5 70/2/5 73/2/5
f 75/1/5 67/1/5 72/1/5
f 76/2/5 73/2/5 67/2/5
f 76/1/5 67/1/5 75/1/5
f 77/2/5 73/2/5 76/2/5
f 78/3/5 63/3/5 70/3/5
f 78/1/5 64/1/5 63/1/5
f 79/1/5 64/1/5 78/1/5
f 80/3/5 72/3/5 71/3/5
f 80/3/5 71/3/5 60/3/5
f 81/3/5 72/3/5 80/3/5
f 82/2/5 81/2/5 80/2/5
f 82/3/5 72/3/5 81/3/5
f 83/1/5 75/1/5 72/1/5
f 83/3/5 72/3/5 82/3/5
f 84/2/5 82/2/5 80/2/5
f 84/3/5 80/3/5 60/3/5
f 85/1/5 83/1/5 82/1/5
f 85/2/5 82/2/5 84/2/5
f 86/1/5 85/1/5 84/1/5
f 86/1/5 83/1/5 85/1/5
f 87/3/5 77/3/5 76/3/5
f 87/1/5 83/1/5 86/1/5
f 87/1/5 75/1/5 83/1/5
f 87/3/5 76/3/5 75/3/5
f 88/1/5 86/1/5 84/1/5
f 88/2/5 87/2/5 86/2/5
f 89/2/5 87/2/5 88/2/5
f 90/3/5 77/3/5 87/3/5
f 90/2/5 87/2/5 89/2/5
f 91/1/5 64/1/5 79/1/5
f 91/2/5 79/2/5 78/2/5
f 92/1/5 64/1/5 91/1/5
f 93/3/5 78/3/5 70/3/5
f 93/2/5 91/2/5 78/2/5
f 94/3/5 92/3/5 91/3/5
f 94/2/5 91/2/5 93/2/5
f 95/2/5 70/2/5 74/2/5
f 95/3/5 93/3/5 70/3/5
f 95/3/5 94/3/5 93/3/5
f 96/3/5 94/3/5 95/3/5
f 97/3/5 94/3/5 96/3/5
f 98/3/5 74/3/5 73/3/5
f 98/2/5 95/2/5 74/2/5
f 98/2/5 96/2/5 95/2/5
f 99/2/5 96/2/5 98/2/5
f 100/2/5 73/2/5 77/2/5
f 100/3/5 98/3/5 73/3/5
f 100/3/5 99/3/5 98/3/5
f 101/3/5 99/3/5 100/3/5
f 102/3/5 94/3/5 97/3/5
f 102/1/5 97/1/5 96/1/5
f 103/3/5 92/3/5 94/3/5
f 103/3/5 94/3/5 102/3/5
f 104/2/5 96/2/5 99/2/5
f 104/1/5 102/1/5 96/1/5
f 104/1/5 103/1/5 102/1/5
f 105/1/5 103/1/5 104/1/5
f 106/1/5 89/1/5 88/1/5
f 107/3/5 90/3/5 89/3/5
f 107/1/5 89/1/5 106/1/5
f 108/2/5 100/2/5 77/2/5
f 108/3/5 90/3/5 107/3/5
f 108/3/5 107/3/5 106/3/5
f 108/3/5 77/3/5 90/3/5
f 108/2/5 101/2/5 100/2/5
f 109/2/5 101/2/5 108/2/5
f 110/3/5 99/3/5 101/3/5
f 110/2/5 101/2/5 109/2/5
f 111/2/5 104/2/5 99/2/5
f 112/3/5 105/3/5 104/3/5
f 112/2/5 104/2/5 111/2/5
f 113/3/5 109/3/5 108/3/5
f 114/1/5 110/1/5 109/1/5
f 114/3/5 109/3/5 113/3/5
f 115/1/5 110/1/5 114/1/5
f 116/3/5 99/3/5 110/3/5
f 116/1/5 110/1/5 115/1/5
f 117/3/5 99/3/5 116/3/5
f 118/3/5 99/3/5 117/3/5
f 119/2/5 111/2/5 99/2/5
f 119/3/5 99/3/5 118/3/5
f 120/3/5 118/3/5 117/3/5
f 120/2/5 119/2/5 118/2/5
f 121/2/5 119/2/5 120/2/5
f 122/1/5 106/1/5 88/1/5
f 122/3/5 108/3/5 106/3/5
f 122/3/5 113/3/5 108/3/5
f 123/2/5 115/2/5 114/2/5
f 123/3/5 113/3/5 122/3/5
f 123/2/5 114/2/5 113/2/5
f 124/2/5 119/2/5 121/2/5
f 124/3/5 121/3/5 120/3/5
f 125/2/5 111/2/5 119/2/5
f 125/2/5 119/2/5 124/2/5
f 126/2/5 111/2/5 125/2/5
f 127/3/5 112/3/5 111/3/5
f 127/2/5 111/2/5 126/2/5
f 128/3/5 125/3/5 124/3/5
f 129/1/5 126/1/5 125/1/5
f 129/3/5 125/3/5 128/3/5
f 130/3/5 127/3/5 126/3/5
f 130/1/5 126/1/5 129/1/5
f 131/3/5 127/3/5 130/3/5
f 132/2/5 115/2/5 123/2/5
f 132/1/5 123/1/5 122/1/5
f 133/1/5 117/1/5 116/1/5
f 133/2/5 115/2/5 132/2/5
f 133/1/5 116/1/5 115/1/5
f 134/1/5 133/1/5 132/1/5
f 135/1/5 117/1/5 133/1/5
f 135/1/5 133/1/5 134/1/5
f 136/1/5 122/1/5 88/1/5
f 136/1/5 132/1/5 122/1/5
f 136/1/5 134/1/5 132/1/5
f 137/1/5 134/1/5 136/1/5
f 138/3/5 84/3/5 60/3/5
f 138/1/5 88/1/5 84/1/5
f 138/1/5 136/1/5 88/1/5
f 139/2/5 137/2/5 136/2/5
f 139/1/5 136/1/5 138/1/5
f 140/1/5 134/1/5 137/1/5
f 140/3/5 135/3/5 134/3/5
f 141/1/5 117/1/5 135/1/5
f 141/3/5 135/3/5 140/3/5
f 142/3/5 127/3/5 131/3/5
f 142/2/5 131/2/5 130/2/5
f 142/2/5 130/2/5 129/2/5
f 142/2/5 129/2/5 128/2/5
f 143/1/5 103/1/5 105/1/5
f 143/3/5 127/3/5 142/3/5
f 143/3/5 105/3/5 112/3/5
f 143/3/5 112/3/5 127/3/5
f 144/3/5 139/3/5 138/3/5
f 144/3/5 138/3/5 60/3/5
f 145/2/5 137/2/5 139/2/5
f 145/3/5 139/3/5 144/3/5
f 146/2/5 137/2/5 145/2/5
f 147/1/5 140/1/5 137/1/5
f 147/2/5 137/2/5 146/2/5
f 147/1/5 141/1/5 140/1/5
f 148/2/5 146/2/5 145/2/5
f 148/2/5 145/2/5 144/2/5
f 148/1/5 147/1/5 146/1/5
f 149/1/5 141/1/5 147/1/5
f 149/1/5 147/1/5 148/1/5
f 150/1/5 143/1/5 142/1/5
f 151/1/5 103/1/5 143/1/5
f 151/1/5 143/1/5 150/1/5
f 152/2/5 142/2/5 128/2/5
f 152/3/5 128/3/5 124/3/5
f 153/2/5 142/2/5 152/2/5
f 154/1/5 150/1/5 142/1/5
f 154/2/5 142/2/5 153/2/5
f 155/3/5 124/3/5 120/3/5
f 155/3/5 153/3/5 152/3/5
f 155/3/5 152/3/5 124/3/5
f 156/3/5 153/3/5 155/3/5
f 157/3/5 144/3/5 60/3/5
f 158/2/5 148/2/5 144/2/5
f 158/3/5 144/3/5 157/3/5
f 159/1/5 117/1/5 141/1/5
f 159/1/5 141/1/5 149/1/5
f 159/3/5 120/3/5 117/3/5
f 159/3/5 155/3/5 120/3/5
f 160/2/5 156/2/5 155/2/5
f 160/3/5 155/3/5 159/3/5
f 161/3/5 153/3/5 156/3/5
f 161/2/5 156/2/5 160/2/5
f 162/1/5 154/1/5 153/1/5
f 162/3/5 153/3/5 161/3/5
f 163/3/5 149/3/5 148/3/5
f 164/1/5 160/1/5 159/1/5
f 164/3/5 149/3/5 163/3/5
f 164/1/5 159/1/5 149/1/5
f 165/1/5 160/1/5 164/1/5
f 166/2/5 164/2/5 163/2/5
f 166/1/5 160/1/5 165/1/5
f 166/2/5 165/2/5 164/2/5
f 167/2/5 161/2/5 160/2/5
f 167/1/5 160/1/5 166/1/5
f 168/1/5 162/1/5 161/1/5
f 168/2/5 161/2/5 167/2/5
f 169/1/5 150/1/5 154/1/5
f 169/1/5 162/1/5 168/1/5
f 169/3/5 151/3/5 150/3/5
f 169/1/5 154/1/5 162/1/5
f 170/2/5 148/2/5 158/2/5
f 170/1/5 158/1/5 157/1/5
f 171/2/5 148/2/5 170/2/5
f 172/2/5 148/2/5 171/2/5
f 173/2/5 148/2/5 172/2/5
f 174/3/5 163/3/5 148/3/5
f 174/2/5 148/2/5 173/2/5
f 175/2/5 166/2/5 163/2/5
f 175/3/5 167/3/5 166/3/5
f 176/2/5 168/2/5 167/2/5
f 176/3/5 167/3/5 175/3/5
f 177/3/5 169/3/5 168/3/5
f 177/2/5 168/2/5 176/2/5
f 178/3/5 151/3/5 169/3/5
f 178/3/5 169/3/5 177/3/5
f 179/1/5 171/1/5 170/1/5
f 179/3/5 172/3/5 171/3/5
f 180/2/5 173/2/5 172/2/5
f 180/3/5 172/3/5 179/3/5
f 181/2/5 175/2/5 163/2/5
f 181/3/5 163/3/5 174/3/5
f 181/3/5 174/3/5 173/3/5
f 182/2/5 175/2/5 181/2/5
f 183/1/5 176/1/5 175/1/5
f 183/2/5 175/2/5 182/2/5
f 184/2/5 173/2/5 180/2/5
f 184/1/5 180/1/5 179/1/5
f 185/3/5 182/3/5 181/3/5
f 185/2/5 173/2/5 184/2/5
f 185/3/5 181/3/5 173/3/5
f 186/1/5 178/1/5 177/1/5
f 186/3/5 151/3/5 178/3/5
f 187/1/5 103/1/5 151/1/5
f 187/3/5 151/3/5 186/3/5
f 188/1/5 176/1/5 183/1/5
f 188/2/5 177/2/5 176/2/5
f 188/1/5 183/1/5 182/1/5
f 189/1/5 186/1/5 177/1/5
f 189/2/5 177/2/5 188/2/5
f 189/1/5 187/1/5 186/1/5
f 190/1/5 170/1/5 157/1/5
f 190/1/5 179/1/5 170/1/5
f 190/1/5 185/1/5 184/1/5
f 190/1/5 184/1/5 179/1/5
f 191/3/5 182/3/5 185/3/5
f 191/1/5 185/1/5 190/1/5
f 192/1/5 188/1/5 182/1/5
f 192/3/5 182/3/5 191/3/5
f 192/1/5 189/1/5 188/1/5
f 193/1/5 103/1/5 187/1/5
f 193/1/5 189/1/5 192/1/5
f 193/1/5 187/1/5 189/1/5
f 194/1/6 195/1/6 196/1/6
f 196/1/6 195/1/6 197/1/6
f 194/1/6 196/1/6 198/1/6
f 198/1/6 196/1/6 199/1/6
f 197/1/6 195/1/6 200/1/6
f 196/2/6 197/2/6 200/2/6
f 200/1/6 195/1/6 201/1/6
f 199/1/6 196/1/6 202/1/6
f 198/2/6 199/2/6 202/2/6
f 200/2/6 201/2/6 203/2/6
f 202/1/6 196/1/6 203/1/6
f 196/2/6 200/2/6 203/2/6
f 203/2/6 201/2/6 204/2/6
f 198/2/6 202/2/6 205/2/6
f 194/1/6 198/1/6 205/1/6
f 205/2/6 202/2/6 206/2/6
f 203/3/6 204/3/6 207/3/6
f 206/2/6 202/2/6 207/2/6
f 202/3/6 203/3/6 207/3/6
f 204/2/6 201/2/6 208/2/6
f 207/3/6 204/3/6 208/3/6
f 206/3/6 207/3/6 208/3/6
f 208/2/6 201/2/6 209/2/6
f 205/1/6 206/1/6 210/1/6
f 206/3/6 208/3/6 210/3/6
f 208/1/6 209/1/6 211/1/6
f 210/3/6 208/3/6 211/3/6
f 211/1/6 209/1/6 212/1/6
f 212/1/6 209/1/6 213/1/6
f 194/1/6 205/1/6 214/1/6
f 205/1/6 210/1/6 214/1/6
f 210/1/6 211/1/6 214/1/6
f 211/1/6 212/1/6 214/1/6
f 214/1/6 212/1/6 215/1/6
f 215/1/6 212/1/6 216/1/6
f 216/1/6 212/1/6 217/1/6
f 214/3/6 215/3/6 218/3/6
f 215/1/6 216/1/6 219/1/6
f 218/3/6 215/3/6 219/3/6
f 213/1/6 209/1/6 220/1/6
f 212/2/6 213/2/6 220/2/6
f 220/1/6 209/1/6 221/1/6
f 217/1/6 212/1/6 222/1/6
f 212/2/6 220/2/6 222/2/6
f 222/2/6 220/2/6 223/2/6
f 220/3/6 221/3/6 224/3/6
f 223/2/6 220/2/6 224/2/6
f 218/1/6 219/1/6 225/1/6
f 219/1/6 216/1/6 226/1/6
f 225/1/6 219/1/6 226/1/6
f 216/2/6 217/2/6 226/2/6
f 226/2/6 217/2/6 227/2/6
f 222/1/6 223/1/6 228/1/6
f 217/1/6 222/1/6 228/1/6
f 223/3/6 224/3/6 229/3/6
f 228/1/6 223/1/6 229/1/6
f 227/2/6 217/2/6 230/2/6
f 226/3/6 227/3/6 230/3/6
f 225/3/6 226/3/6 230/3/6
f 217/1/6 228/1/6 231/1/6
f 230/2/6 217/2/6 231/2/6
f 229/3/6 224/3/6 232/3/6
f 228/2/6 229/2/6 232/2/6
f 224/3/6 221/3/6 233/3/6
f 232/3/6 224/3/6 233/3/6
f 225/3/6 230/3/6 234/3/6
f 230/1/6 231/1/6 234/1/6
f 234/1/6 231/1/6 235/1/6
f 218/1/6 225/1/6 236/1/6
f 225/3/6 234/3/6 236/3/6
f 236/3/6 234/3/6 237/3/6
f 234/2/6 235/2/6 238/2/6
f 237/3/6 234/3/6 238/3/6
f 235/1/6 231/1/6 239/1/6
f 228/2/6 232/2/6 239/2/6
f 231/1/6 228/1/6 239/1/6
f 232/2/6 233/2/6 239/2/6
f 239/2/6 233/2/6 240/2/6
f 218/1/6 236/1/6 241/1/6
f 236/1/6 237/1/6 241/1/6
f 237/2/6 238/2/6 242/2/6
f 241/1/6 237/1/6 242/1/6
f 238/2/6 235/2/6 243/2/6
f 242/2/6 238/2/6 243/2/6
f 239/1/6 240/1/6 243/1/6
f 235/1/6 239/1/6 243/1/6
f 243/1/6 240/1/6 244/1/6
f 241/3/6 242/3/6 245/3/6
f 218/1/6 241/1/6 245/1/6
f 243/3/6 244/3/6 245/3/6
f 242/3/6 243/3/6 245/3/6
f 244/1/6 240/1/6 246/1/6
f 245/3/6 244/3/6 246/3/6
f 245/1/6 246/1/6 247/1/6
f 246/1/6 240/1/6 248/1/6
f 247/1/6 246/1/6 248/1/6
f 247/2/6 248/2/6 249/2/6
f 248/1/6 240/1/6 250/1/6
f 249/2/6 248/2/6 250/2/6
f 250/1/6 240/1/6 251/1/6
f 249/3/6 250/3/6 252/3/6
f 251/1/6 240/1/6 252/1/6
f 250/3/6 251/3/6 252/3/6
f 252/1/6 240/1/6 253/1/6
f 218/1/6 245/1/6 254/1/6
f 245/1/6 247/1/6 254/1/6
f 247/2/6 249/2/6 255/2/6
f 254/1/6 247/1/6 255/1/6
f 255/2/6 249/2/6 256/2/6
f 249/3/6 252/3/6 257/3/6
f 256/2/6 249/2/6 257/2/6
f 256/1/6 257/1/6 258/1/6
f 257/3/6 252/3/6 259/3/6
f 258/1/6 257/1/6 259/1/6
f 259/3/6 252/3/6 260/3/6
f 258/2/6 259/2/6 261/2/6
f 260/3/6 252/3/6 261/3/6
f 259/2/6 260/2/6 261/2/6
f 261/3/6 252/3/6 262/3/6
f 252/2/6 253/2/6 263/2/6
f 262/3/6 252/3/6 263/3/6
f 218/1/6 254/1/6 264/1/6
f 255/3/6 256/3/6 264/3/6
f 254/3/6 255/3/6 264/3/6
f 256/1/6 258/1/6 265/1/6
f 264/3/6 256/3/6 265/3/6
f 264/1/6 265/1/6 266/1/6
f 258/2/6 261/2/6 267/2/6
f 266/1/6 265/1/6 267/1/6
f 265/1/6 258/1/6 267/1/6
f 261/1/6 262/1/6 268/1/6
f 267/2/6 261/2/6 268/2/6
f 268/1/6 262/1/6 269/1/6
f 262/2/6 263/2/6 270/2/6
f 269/1/6 262/1/6 270/1/6
f 263/2/6 253/2/6 271/2/6
f 270/2/6 263/2/6 271/2/6
f 266/3/6 267/3/6 272/3/6
f 267/2/6 268/2/6 272/2/6
f 268/3/6 269/3/6 273/3/6
f 272/2/6 268/2/6 273/2/6
f 264/1/6 266/1/6 274/1/6
f 218/1/6 264/1/6 274/1/6
f 266/3/6 272/3/6 275/3/6
f 274/1/6 266/1/6 275/1/6
f 272/3/6 273/3/6 275/3/6
f 274/2/6 275/2/6 276/2/6
f 275/3/6 273/3/6 276/3/6
f 273/3/6 269/3/6 277/3/6
f 276/3/6 273/3/6 277/3/6
f 269/1/6 270/1/6 278/1/6
f 277/3/6 269/3/6 278/3/6
f 270/1/6 271/1/6 278/1/6
f 276/2/6 277/2/6 279/2/6
f 274/2/6 276/2/6 279/2/6
f 277/1/6 278/1/6 280/1/6
f 279/2/6 277/2/6 280/2/6
f 279/1/6 280/1/6 281/1/6
f 281/1/6 280/1/6 282/1/6
f 281/3/6 282/3/6 283/3/6
f 282/1/6 280/1/6 284/1/6
f 283/3/6 282/3/6 284/3/6
f 278/1/6 271/1/6 285/1/6
f 284/1/6 280/1/6 285/1/6
f 280/1/6 278/1/6 285/1/6
