# MagicaVoxel @ Ephtracy

# group
g FloorE

# material
mtllib FloorE.mtl
usemtl palette

# normals
vn -1 0 0
vn 1 0 0
vn 0 0 1
vn 0 0 -1
vn 0 -1 0
vn 0 1 0

# texcoords
vt 0.00976563 0.5
vt 0.0371094 0.5
vt 0.0683594 0.5

# verts
v -63 0 63
v -63 0 41
v -63 0 19
v -63 0 -63
v -63 1 41
v -63 1 19
v -63 6 2
v -63 6 -21
v -63 9 -21
v -63 9 -58
v -63 21 29
v -63 21 23
v -63 21 8
v -63 21 2
v -63 21 -16
v -63 22 63
v -63 22 29
v -63 22 23
v -63 22 8
v -63 22 -16
v -63 22 -21
v -63 22 -58
v -63 22 -63
v 63 0 63
v 63 0 41
v 63 0 19
v 63 0 -63
v 63 1 41
v 63 1 19
v 63 6 2
v 63 6 -21
v 63 9 -21
v 63 9 -58
v 63 21 29
v 63 21 23
v 63 21 8
v 63 21 2
v 63 21 -16
v 63 22 63
v 63 22 29
v 63 22 23
v 63 22 8
v 63 22 -16
v 63 22 -21
v 63 22 -58
v 63 22 -63
v -63 0 63
v -63 22 63
v -58 0 63
v -58 10 63
v -55 21 63
v -55 22 63
v -43 21 63
v -43 22 63
v -13 0 63
v -13 10 63
v -13 13 63
v -13 22 63
v 12 13 63
v 12 21 63
v 12 22 63
v 14 0 63
v 14 1 63
v 31 0 63
v 31 1 63
v 60 21 63
v 60 22 63
v 63 0 63
v 63 22 63
v -63 0 -63
v -63 22 -63
v -58 0 -63
v -58 10 -63
v -55 21 -63
v -55 22 -63
v -43 21 -63
v -43 22 -63
v -13 0 -63
v -13 10 -63
v -13 13 -63
v -13 22 -63
v 12 13 -63
v 12 21 -63
v 12 22 -63
v 60 21 -63
v 60 22 -63
v 63 0 -63
v 63 22 -63
v -63 0 63
v -58 0 63
v -13 0 63
v 14 0 63
v 31 0 63
v 63 0 63
v -13 0 54
v 14 0 54
v 31 0 54
v 47 0 54
v -63 0 41
v -58 0 41
v -37 0 41
v 39 0 41
v 47 0 41
v 63 0 41
v -13 0 32
v 14 0 32
v 31 0 32
v 39 0 32
v -37 0 26
v -13 0 26
v -63 0 19
v -37 0 19
v 39 0 19
v 63 0 19
v -38 0 5
v -13 0 5
v -13 0 3
v 14 0 3
v 14 0 -5
v 22 0 -5
v 31 0 -5
v -38 0 -19
v -13 0 -19
v -13 0 -20
v 22 0 -20
v -46 0 -21
v -42 0 -21
v -26 0 -21
v -13 0 -21
v -7 0 -21
v -10 0 -25
v -7 0 -25
v 5 0 -25
v -13 0 -28
v -10 0 -28
v 16 0 -33
v 41 0 -33
v -46 0 -40
v -42 0 -40
v -10 0 -44
v 5 0 -44
v -58 0 -50
v -42 0 -50
v -26 0 -50
v -13 0 -50
v 16 0 -52
v 41 0 -52
v -42 0 -60
v -26 0 -60
v -63 0 -63
v -58 0 -63
v -13 0 -63
v 63 0 -63
v -63 22 63
v -55 22 63
v -43 22 63
v -13 22 63
v 12 22 63
v 60 22 63
v 63 22 63
v -13 22 55
v 2 22 55
v 12 22 55
v -61 22 54
v -55 22 54
v -43 22 54
v -32 22 54
v -61 22 42
v -55 22 42
v -43 22 42
v -32 22 42
v -55 22 39
v -43 22 39
v 11 22 38
v 41 22 38
v -63 22 29
v -52 22 29
v -34 22 29
v -24 22 29
v 60 22 29
v 63 22 29
v -63 22 23
v -52 22 23
v 60 22 23
v 63 22 23
v 11 22 15
v 41 22 15
v -63 22 8
v -61 22 8
v 34 22 8
v 60 22 8
v 63 22 8
v -47 22 6
v -34 22 6
v -24 22 6
v -13 22 6
v -61 22 2
v -53 22 2
v -13 22 -3
v 2 22 -3
v 6 22 -3
v 6 22 -6
v 34 22 -6
v -63 22 -16
v -61 22 -16
v 34 22 -16
v 53 22 -16
v 63 22 -16
v -63 22 -21
v -59 22 -21
v -53 22 -21
v -47 22 -21
v 6 22 -21
v 41 22 -21
v 53 22 -21
v 63 22 -21
v -31 22 -22
v -13 22 -22
v 2 22 -24
v 41 22 -24
v -13 22 -30
v 2 22 -30
v 12 22 -30
v -31 22 -35
v -13 22 -35
v -55 22 -42
v -43 22 -42
v -39 22 -45
v -17 22 -45
v -39 22 -51
v -17 22 -51
v -63 22 -58
v -59 22 -58
v 41 22 -58
v 60 22 -58
v 63 22 -58
v -63 22 -63
v -55 22 -63
v -43 22 -63
v -13 22 -63
v 12 22 -63
v 60 22 -63
v 63 22 -63

# faces
f 5/1/1 2/1/1 1/1/1
f 5/3/1 3/3/1 2/3/1
f 6/1/1 4/1/1 3/1/1
f 6/3/1 3/3/1 5/3/1
f 7/1/1 6/1/1 5/1/1
f 7/1/1 4/1/1 6/1/1
f 8/1/1 4/1/1 7/1/1
f 9/2/1 8/2/1 7/2/1
f 9/1/1 4/1/1 8/1/1
f 10/1/1 4/1/1 9/1/1
f 11/1/1 7/1/1 5/1/1
f 12/1/1 7/1/1 11/1/1
f 13/1/1 7/1/1 12/1/1
f 14/2/1 9/2/1 7/2/1
f 14/1/1 7/1/1 13/1/1
f 15/2/1 9/2/1 14/2/1
f 16/1/1 5/1/1 1/1/1
f 16/1/1 11/1/1 5/1/1
f 17/2/1 12/2/1 11/2/1
f 17/1/1 11/1/1 16/1/1
f 18/1/1 13/1/1 12/1/1
f 18/2/1 12/2/1 17/2/1
f 19/3/1 15/3/1 14/3/1
f 19/1/1 13/1/1 18/1/1
f 19/3/1 14/3/1 13/3/1
f 20/2/1 9/2/1 15/2/1
f 20/3/1 15/3/1 19/3/1
f 21/3/1 10/3/1 9/3/1
f 21/2/1 9/2/1 20/2/1
f 22/1/1 4/1/1 10/1/1
f 22/3/1 10/3/1 21/3/1
f 23/1/1 4/1/1 22/1/1
f 24/1/2 25/1/2 28/1/2
f 25/3/2 26/3/2 28/3/2
f 26/1/2 27/1/2 29/1/2
f 28/3/2 26/3/2 29/3/2
f 28/1/2 29/1/2 30/1/2
f 29/1/2 27/1/2 30/1/2
f 30/1/2 27/1/2 31/1/2
f 30/2/2 31/2/2 32/2/2
f 31/1/2 27/1/2 32/1/2
f 32/1/2 27/1/2 33/1/2
f 28/1/2 30/1/2 34/1/2
f 34/1/2 30/1/2 35/1/2
f 35/1/2 30/1/2 36/1/2
f 30/2/2 32/2/2 37/2/2
f 36/1/2 30/1/2 37/1/2
f 37/2/2 32/2/2 38/2/2
f 24/1/2 28/1/2 39/1/2
f 28/1/2 34/1/2 39/1/2
f 34/2/2 35/2/2 40/2/2
f 39/1/2 34/1/2 40/1/2
f 35/1/2 36/1/2 41/1/2
f 40/2/2 35/2/2 41/2/2
f 37/3/2 38/3/2 42/3/2
f 41/1/2 36/1/2 42/1/2
f 36/3/2 37/3/2 42/3/2
f 38/2/2 32/2/2 43/2/2
f 42/3/2 38/3/2 43/3/2
f 32/3/2 33/3/2 44/3/2
f 43/2/2 32/2/2 44/2/2
f 33/1/2 27/1/2 45/1/2
f 44/3/2 33/3/2 45/3/2
f 45/1/2 27/1/2 46/1/2
f 49/1/3 48/1/3 47/1/3
f 50/1/3 48/1/3 49/1/3
f 51/1/3 48/1/3 50/1/3
f 52/1/3 48/1/3 51/1/3
f 53/1/3 51/1/3 50/1/3
f 53/2/3 52/2/3 51/2/3
f 54/2/3 52/2/3 53/2/3
f 55/2/3 50/2/3 49/2/3
f 56/1/3 53/1/3 50/1/3
f 56/2/3 50/2/3 55/2/3
f 56/1/3 54/1/3 53/1/3
f 57/1/3 54/1/3 56/1/3
f 58/1/3 54/1/3 57/1/3
f 59/1/3 56/1/3 55/1/3
f 59/1/3 57/1/3 56/1/3
f 59/3/3 58/3/3 57/3/3
f 60/3/3 58/3/3 59/3/3
f 61/3/3 58/3/3 60/3/3
f 62/1/3 59/1/3 55/1/3
f 62/1/3 60/1/3 59/1/3
f 63/1/3 60/1/3 62/1/3
f 64/3/3 63/3/3 62/3/3
f 65/1/3 60/1/3 63/1/3
f 65/3/3 63/3/3 64/3/3
f 66/2/3 61/2/3 60/2/3
f 66/1/3 60/1/3 65/1/3
f 66/1/3 65/1/3 64/1/3
f 67/2/3 61/2/3 66/2/3
f 68/1/3 66/1/3 64/1/3
f 68/1/3 67/1/3 66/1/3
f 69/1/3 67/1/3 68/1/3
f 70/1/4 71/1/4 72/1/4
f 72/1/4 71/1/4 73/1/4
f 73/1/4 71/1/4 74/1/4
f 74/1/4 71/1/4 75/1/4
f 73/1/4 74/1/4 76/1/4
f 74/2/4 75/2/4 76/2/4
f 76/2/4 75/2/4 77/2/4
f 72/2/4 73/2/4 78/2/4
f 73/1/4 76/1/4 79/1/4
f 78/2/4 73/2/4 79/2/4
f 76/1/4 77/1/4 79/1/4
f 79/1/4 77/1/4 80/1/4
f 80/1/4 77/1/4 81/1/4
f 78/1/4 79/1/4 82/1/4
f 79/1/4 80/1/4 82/1/4
f 80/3/4 81/3/4 82/3/4
f 82/3/4 81/3/4 83/3/4
f 83/3/4 81/3/4 84/3/4
f 82/1/4 83/1/4 85/1/4
f 83/2/4 84/2/4 85/2/4
f 85/2/4 84/2/4 86/2/4
f 78/1/4 82/1/4 87/1/4
f 82/1/4 85/1/4 87/1/4
f 85/1/4 86/1/4 87/1/4
f 87/1/4 86/1/4 88/1/4
f 95/2/5 91/2/5 90/2/5
f 95/1/5 92/1/5 91/1/5
f 96/3/5 93/3/5 92/3/5
f 96/1/5 92/1/5 95/1/5
f 97/1/5 94/1/5 93/1/5
f 97/3/5 93/3/5 96/3/5
f 98/1/5 94/1/5 97/1/5
f 99/1/5 90/1/5 89/1/5
f 100/2/5 96/2/5 95/2/5
f 100/1/5 90/1/5 99/1/5
f 100/2/5 95/2/5 90/2/5
f 101/2/5 96/2/5 100/2/5
f 102/2/5 98/2/5 97/2/5
f 103/1/5 94/1/5 98/1/5
f 103/2/5 98/2/5 102/2/5
f 104/1/5 94/1/5 103/1/5
f 105/2/5 96/2/5 101/2/5
f 106/3/5 97/3/5 96/3/5
f 106/2/5 96/2/5 105/2/5
f 107/2/5 102/2/5 97/2/5
f 107/3/5 97/3/5 106/3/5
f 108/3/5 103/3/5 102/3/5
f 108/2/5 102/2/5 107/2/5
f 108/3/5 104/3/5 103/3/5
f 109/2/5 105/2/5 101/2/5
f 109/3/5 100/3/5 99/3/5
f 109/3/5 101/3/5 100/3/5
f 110/1/5 106/1/5 105/1/5
f 110/2/5 105/2/5 109/2/5
f 111/3/5 109/3/5 99/3/5
f 112/1/5 110/1/5 109/1/5
f 112/3/5 109/3/5 111/3/5
f 113/3/5 104/3/5 108/3/5
f 113/1/5 108/1/5 107/1/5
f 114/3/5 104/3/5 113/3/5
f 115/1/5 112/1/5 111/1/5
f 116/1/5 106/1/5 110/1/5
f 116/1/5 112/1/5 115/1/5
f 116/1/5 110/1/5 112/1/5
f 117/2/5 116/2/5 115/2/5
f 117/1/5 106/1/5 116/1/5
f 118/3/5 107/3/5 106/3/5
f 118/1/5 106/1/5 117/1/5
f 119/2/5 118/2/5 117/2/5
f 119/3/5 107/3/5 118/3/5
f 120/3/5 107/3/5 119/3/5
f 121/1/5 114/1/5 113/1/5
f 121/3/5 107/3/5 120/3/5
f 121/1/5 113/1/5 107/1/5
f 122/1/5 115/1/5 111/1/5
f 122/2/5 120/2/5 119/2/5
f 122/2/5 117/2/5 115/2/5
f 122/2/5 119/2/5 117/2/5
f 123/2/5 120/2/5 122/2/5
f 124/1/5 123/1/5 122/1/5
f 124/2/5 120/2/5 123/2/5
f 125/1/5 121/1/5 120/1/5
f 125/2/5 120/2/5 124/2/5
f 126/1/5 124/1/5 122/1/5
f 126/1/5 122/1/5 111/1/5
f 126/1/5 125/1/5 124/1/5
f 127/1/5 125/1/5 126/1/5
f 128/1/5 125/1/5 127/1/5
f 129/1/5 125/1/5 128/1/5
f 130/1/5 125/1/5 129/1/5
f 131/2/5 130/2/5 129/2/5
f 132/1/5 125/1/5 130/1/5
f 132/2/5 130/2/5 131/2/5
f 133/1/5 125/1/5 132/1/5
f 134/1/5 129/1/5 128/1/5
f 134/2/5 131/2/5 129/2/5
f 135/3/5 133/3/5 132/3/5
f 135/2/5 131/2/5 134/2/5
f 135/3/5 132/3/5 131/3/5
f 136/1/5 125/1/5 133/1/5
f 137/1/5 114/1/5 121/1/5
f 137/1/5 125/1/5 136/1/5
f 137/1/5 121/1/5 125/1/5
f 138/1/5 126/1/5 111/1/5
f 138/2/5 127/2/5 126/2/5
f 139/3/5 128/3/5 127/3/5
f 139/2/5 127/2/5 138/2/5
f 140/1/5 135/1/5 134/1/5
f 140/3/5 133/3/5 135/3/5
f 141/1/5 136/1/5 133/1/5
f 141/3/5 133/3/5 140/3/5
f 142/1/5 138/1/5 111/1/5
f 142/1/5 139/1/5 138/1/5
f 143/3/5 128/3/5 139/3/5
f 143/1/5 139/1/5 142/1/5
f 144/1/5 140/1/5 134/1/5
f 144/3/5 128/3/5 143/3/5
f 144/1/5 141/1/5 140/1/5
f 144/1/5 134/1/5 128/1/5
f 145/1/5 141/1/5 144/1/5
f 146/3/5 137/3/5 136/3/5
f 146/1/5 141/1/5 145/1/5
f 146/1/5 136/1/5 141/1/5
f 147/1/5 114/1/5 137/1/5
f 147/3/5 137/3/5 146/3/5
f 148/2/5 143/2/5 142/2/5
f 148/3/5 144/3/5 143/3/5
f 149/2/5 145/2/5 144/2/5
f 149/3/5 144/3/5 148/3/5
f 150/1/5 142/1/5 111/1/5
f 151/2/5 148/2/5 142/2/5
f 151/1/5 142/1/5 150/1/5
f 151/2/5 149/2/5 148/2/5
f 152/2/5 145/2/5 149/2/5
f 152/2/5 149/2/5 151/2/5
f 152/1/5 146/1/5 145/1/5
f 152/1/5 147/1/5 146/1/5
f 153/1/5 114/1/5 147/1/5
f 153/1/5 147/1/5 152/1/5
f 156/1/6 157/1/6 161/1/6
f 157/3/6 158/3/6 161/3/6
f 161/3/6 158/3/6 162/3/6
f 158/2/6 159/2/6 163/2/6
f 162/3/6 158/3/6 163/3/6
f 154/1/6 155/1/6 164/1/6
f 155/2/6 156/2/6 165/2/6
f 164/1/6 155/1/6 165/1/6
f 161/1/6 162/1/6 166/1/6
f 165/2/6 156/2/6 166/2/6
f 156/1/6 161/1/6 166/1/6
f 166/1/6 162/1/6 167/1/6
f 154/1/6 164/1/6 168/1/6
f 164/3/6 165/3/6 168/3/6
f 166/3/6 167/3/6 168/3/6
f 165/3/6 166/3/6 168/3/6
f 168/3/6 167/3/6 169/3/6
f 169/3/6 167/3/6 170/3/6
f 167/1/6 162/1/6 171/1/6
f 170/3/6 167/3/6 171/3/6
f 169/2/6 170/2/6 172/2/6
f 168/1/6 169/1/6 172/1/6
f 170/1/6 171/1/6 173/1/6
f 172/2/6 170/2/6 173/2/6
f 162/2/6 163/2/6 174/2/6
f 163/2/6 159/2/6 175/2/6
f 174/2/6 163/2/6 175/2/6
f 154/1/6 168/1/6 176/1/6
f 168/1/6 172/1/6 176/1/6
f 172/1/6 173/1/6 176/1/6
f 176/1/6 173/1/6 177/1/6
f 173/1/6 171/1/6 178/1/6
f 177/1/6 173/1/6 178/1/6
f 171/1/6 162/1/6 179/1/6
f 178/1/6 171/1/6 179/1/6
f 159/1/6 160/1/6 180/1/6
f 175/2/6 159/2/6 180/2/6
f 180/1/6 160/1/6 181/1/6
f 176/2/6 177/2/6 182/2/6
f 177/1/6 178/1/6 183/1/6
f 182/2/6 177/2/6 183/2/6
f 175/2/6 180/2/6 184/2/6
f 180/2/6 181/2/6 184/2/6
f 184/2/6 181/2/6 185/2/6
f 162/2/6 174/2/6 186/2/6
f 174/3/6 175/3/6 186/3/6
f 175/2/6 184/2/6 187/2/6
f 186/3/6 175/3/6 187/3/6
f 182/1/6 183/1/6 188/1/6
f 188/1/6 183/1/6 189/1/6
f 186/2/6 187/2/6 190/2/6
f 184/1/6 185/1/6 191/1/6
f 190/2/6 187/2/6 191/2/6
f 187/2/6 184/2/6 191/2/6
f 191/1/6 185/1/6 192/1/6
f 183/1/6 178/1/6 193/1/6
f 189/1/6 183/1/6 193/1/6
f 178/2/6 179/2/6 194/2/6
f 193/1/6 178/1/6 194/1/6
f 179/1/6 162/1/6 195/1/6
f 194/2/6 179/2/6 195/2/6
f 195/1/6 162/1/6 196/1/6
f 189/1/6 193/1/6 197/1/6
f 188/3/6 189/3/6 197/3/6
f 197/1/6 193/1/6 198/1/6
f 193/3/6 194/3/6 199/3/6
f 196/1/6 162/1/6 199/1/6
f 195/3/6 196/3/6 199/3/6
f 194/3/6 195/3/6 199/3/6
f 186/2/6 190/2/6 200/2/6
f 199/1/6 162/1/6 200/1/6
f 162/2/6 186/2/6 200/2/6
f 200/2/6 190/2/6 201/2/6
f 199/3/6 200/3/6 202/3/6
f 201/2/6 190/2/6 202/2/6
f 200/3/6 201/3/6 202/3/6
f 190/3/6 191/3/6 203/3/6
f 202/2/6 190/2/6 203/2/6
f 191/3/6 192/3/6 203/3/6
f 188/3/6 197/3/6 204/3/6
f 197/2/6 198/2/6 205/2/6
f 204/3/6 197/3/6 205/3/6
f 203/3/6 192/3/6 206/3/6
f 202/1/6 203/1/6 206/1/6
f 206/3/6 192/3/6 207/3/6
f 207/3/6 192/3/6 208/3/6
f 204/2/6 205/2/6 209/2/6
f 205/2/6 198/2/6 210/2/6
f 209/2/6 205/2/6 210/2/6
f 198/1/6 193/1/6 211/1/6
f 210/2/6 198/2/6 211/2/6
f 193/3/6 199/3/6 212/3/6
f 211/1/6 193/1/6 212/1/6
f 199/3/6 202/3/6 212/3/6
f 202/1/6 206/1/6 213/1/6
f 212/3/6 202/3/6 213/3/6
f 206/1/6 207/1/6 213/1/6
f 213/1/6 207/1/6 214/1/6
f 207/2/6 208/2/6 215/2/6
f 214/1/6 207/1/6 215/1/6
f 215/2/6 208/2/6 216/2/6
f 210/1/6 211/1/6 217/1/6
f 213/1/6 214/1/6 217/1/6
f 211/1/6 212/1/6 217/1/6
f 212/1/6 213/1/6 217/1/6
f 217/1/6 214/1/6 218/1/6
f 218/1/6 214/1/6 219/1/6
f 215/3/6 216/3/6 220/3/6
f 219/1/6 214/1/6 220/1/6
f 214/3/6 215/3/6 220/3/6
f 218/1/6 219/1/6 221/1/6
f 217/3/6 218/3/6 221/3/6
f 219/2/6 220/2/6 222/2/6
f 221/1/6 219/1/6 222/1/6
f 222/2/6 220/2/6 223/2/6
f 217/3/6 221/3/6 224/3/6
f 210/1/6 217/1/6 224/1/6
f 222/3/6 223/3/6 224/3/6
f 221/3/6 222/3/6 224/3/6
f 224/3/6 223/3/6 225/3/6
f 210/1/6 224/1/6 226/1/6
f 224/1/6 225/1/6 226/1/6
f 226/1/6 225/1/6 227/1/6
f 227/1/6 225/1/6 228/1/6
f 228/1/6 225/1/6 229/1/6
f 227/1/6 228/1/6 230/1/6
f 228/2/6 229/2/6 230/2/6
f 229/1/6 225/1/6 231/1/6
f 230/2/6 229/2/6 231/2/6
f 209/3/6 210/3/6 232/3/6
f 210/1/6 226/1/6 233/1/6
f 232/3/6 210/3/6 233/3/6
f 220/3/6 216/3/6 234/3/6
f 223/2/6 220/2/6 234/2/6
f 234/3/6 216/3/6 235/3/6
f 235/3/6 216/3/6 236/3/6
f 232/1/6 233/1/6 237/1/6
f 233/1/6 226/1/6 238/1/6
f 237/1/6 233/1/6 238/1/6
f 226/2/6 227/2/6 238/2/6
f 227/1/6 230/1/6 239/1/6
f 238/2/6 227/2/6 239/2/6
f 230/1/6 231/1/6 239/1/6
f 231/1/6 225/1/6 240/1/6
f 239/1/6 231/1/6 240/1/6
f 225/3/6 223/3/6 240/3/6
f 223/2/6 234/2/6 241/2/6
f 240/3/6 223/3/6 241/3/6
f 234/2/6 235/2/6 241/2/6
f 235/1/6 236/1/6 242/1/6
f 241/2/6 235/2/6 242/2/6
f 242/1/6 236/1/6 243/1/6
