# MagicaVoxel @ Ephtracy

# group
g FloorC

# material
mtllib FloorC.mtl
usemtl palette

# normals
vn -1 0 0
vn 1 0 0
vn 0 0 1
vn 0 0 -1
vn 0 -1 0
vn 0 1 0

# texcoords
vt 0.00976563 0.5
vt 0.0371094 0.5
vt 0.0683594 0.5

# verts
v -63 0 63
v -63 0 53
v -63 0 20
v -63 0 -46
v -63 0 -63
v -63 5 -13
v -63 5 -43
v -63 10 -43
v -63 10 -46
v -63 12 -50
v -63 12 -63
v -63 13 53
v -63 13 20
v -63 22 63
v -63 22 -13
v -63 22 -50
v -63 22 -63
v 63 0 63
v 63 0 49
v 63 0 -44
v 63 0 -62
v 63 0 -63
v 63 8 -44
v 63 8 -62
v 63 10 57
v 63 10 49
v 63 10 36
v 63 15 5
v 63 15 -41
v 63 22 63
v 63 22 57
v 63 22 36
v 63 22 5
v 63 22 -41
v 63 22 -63
v -63 0 63
v -63 22 63
v -31 0 63
v -31 6 63
v -5 21 63
v -5 22 63
v 1 0 63
v 1 6 63
v 10 21 63
v 10 22 63
v 15 11 63
v 15 22 63
v 49 0 63
v 49 11 63
v 63 0 63
v 63 22 63
v -63 0 -63
v -63 12 -63
v -63 22 -63
v -57 0 -63
v -57 5 -63
v -57 12 -63
v -46 0 -63
v -46 5 -63
v -32 0 -63
v -32 8 -63
v -2 11 -63
v -2 22 -63
v 18 0 -63
v 18 8 -63
v 29 11 -63
v 29 22 -63
v 43 13 -63
v 43 22 -63
v 61 13 -63
v 61 22 -63
v 63 0 -63
v 63 22 -63
v -63 0 63
v -31 0 63
v 1 0 63
v 49 0 63
v 63 0 63
v 35 0 57
v 49 0 57
v 55 0 57
v -63 0 53
v -62 0 53
v 55 0 49
v 63 0 49
v -49 0 47
v -31 0 47
v 1 0 47
v 4 0 47
v 35 0 34
v 55 0 34
v -7 0 32
v 4 0 32
v 9 0 32
v -49 0 21
v -7 0 21
v -63 0 20
v -62 0 20
v 23 0 20
v 41 0 20
v -7 0 11
v 9 0 11
v -52 0 10
v -28 0 10
v -15 0 4
v 5 0 4
v -38 0 -2
v -28 0 -2
v -20 0 -2
v -52 0 -8
v -38 0 -8
v -38 0 -13
v -20 0 -13
v 27 0 -14
v 41 0 -14
v 51 0 -14
v 23 0 -19
v 27 0 -19
v 9 0 -23
v 20 0 -23
v -15 0 -25
v 5 0 -25
v -62 0 -29
v -46 0 -29
v -32 0 -32
v 9 0 -32
v 27 0 -38
v 51 0 -38
v -33 0 -40
v -32 0 -40
v -1 0 -40
v 41 0 -44
v 63 0 -44
v -63 0 -46
v -62 0 -46
v -57 0 -46
v 9 0 -49
v 18 0 -49
v 20 0 -49
v -33 0 -58
v -32 0 -58
v -1 0 -58
v 41 0 -62
v 63 0 -62
v -63 0 -63
v -57 0 -63
v -46 0 -63
v -32 0 -63
v 18 0 -63
v 63 0 -63
v -63 22 63
v -5 22 63
v 10 22 63
v 15 22 63
v 63 22 63
v 10 22 60
v 15 22 60
v 38 22 60
v 49 22 57
v 63 22 57
v -60 22 54
v -51 22 54
v -5 22 53
v 3 22 53
v 10 22 53
v -51 22 50
v -20 22 50
v 38 22 50
v 49 22 50
v -20 22 49
v 3 22 49
v -60 22 38
v -57 22 38
v -51 22 38
v 3 22 38
v 19 22 38
v 38 22 38
v 49 22 36
v 63 22 36
v 31 22 30
v 48 22 30
v -57 22 27
v -46 22 27
v -20 22 27
v 31 22 18
v 48 22 18
v -33 22 14
v -21 22 14
v 26 22 8
v 34 22 8
v 43 22 5
v 63 22 5
v 7 22 -1
v 19 22 -1
v 26 22 -1
v 34 22 -1
v 43 22 -1
v 58 22 -1
v -46 22 -11
v -33 22 -11
v -21 22 -11
v 7 22 -11
v -63 22 -13
v -62 22 -13
v 7 22 -15
v 26 22 -15
v 34 22 -15
v 43 22 -15
v 58 22 -15
v -59 22 -18
v -49 22 -18
v -33 22 -21
v -21 22 -21
v 26 22 -21
v 34 22 -21
v -17 22 -26
v 5 22 -26
v -62 22 -30
v -59 22 -30
v 5 22 -33
v 29 22 -33
v -59 22 -34
v -52 22 -34
v -49 22 -34
v -50 22 -38
v -17 22 -38
v 43 22 -41
v 63 22 -41
v 38 22 -43
v 49 22 -43
v -17 22 -48
v -10 22 -48
v -2 22 -48
v 5 22 -48
v 49 22 -48
v 61 22 -48
v -63 22 -50
v -52 22 -50
v 38 22 -54
v 43 22 -54
v 49 22 -54
v -50 22 -55
v -10 22 -55
v -63 22 -63
v -2 22 -63
v 29 22 -63
v 43 22 -63
v 61 22 -63
v 63 22 -63

# faces
f 6/1/1 4/1/1 3/1/1
f 7/1/1 4/1/1 6/1/1
f 8/3/1 7/3/1 6/3/1
f 8/1/1 4/1/1 7/1/1
f 9/3/1 5/3/1 4/3/1
f 9/1/1 4/1/1 8/1/1
f 10/3/1 9/3/1 8/3/1
f 10/3/1 5/3/1 9/3/1
f 11/3/1 5/3/1 10/3/1
f 12/1/1 2/1/1 1/1/1
f 12/2/1 3/2/1 2/2/1
f 13/1/1 6/1/1 3/1/1
f 13/2/1 3/2/1 12/2/1
f 14/1/1 12/1/1 1/1/1
f 14/1/1 13/1/1 12/1/1
f 15/3/1 8/3/1 6/3/1
f 15/1/1 13/1/1 14/1/1
f 15/1/1 6/1/1 13/1/1
f 15/3/1 10/3/1 8/3/1
f 16/1/1 11/1/1 10/1/1
f 16/3/1 10/3/1 15/3/1
f 17/1/1 11/1/1 16/1/1
f 19/1/2 20/1/2 23/1/2
f 20/3/2 21/3/2 23/3/2
f 21/1/2 22/1/2 24/1/2
f 23/3/2 21/3/2 24/3/2
f 18/2/2 19/2/2 25/2/2
f 19/1/2 23/1/2 26/1/2
f 25/2/2 19/2/2 26/2/2
f 23/1/2 24/1/2 26/1/2
f 26/1/2 24/1/2 27/1/2
f 27/1/2 24/1/2 28/1/2
f 28/1/2 24/1/2 29/1/2
f 18/2/2 25/2/2 30/2/2
f 25/3/2 26/3/2 31/3/2
f 30/2/2 25/2/2 31/2/2
f 26/3/2 27/3/2 31/3/2
f 27/1/2 28/1/2 32/1/2
f 31/3/2 27/3/2 32/3/2
f 28/2/2 29/2/2 33/2/2
f 32/1/2 28/1/2 33/1/2
f 29/1/2 24/1/2 34/1/2
f 33/2/2 29/2/2 34/2/2
f 24/1/2 22/1/2 35/1/2
f 34/1/2 24/1/2 35/1/2
f 38/1/3 37/1/3 36/1/3
f 39/1/3 37/1/3 38/1/3
f 40/1/3 37/1/3 39/1/3
f 41/1/3 37/1/3 40/1/3
f 42/2/3 39/2/3 38/2/3
f 43/1/3 40/1/3 39/1/3
f 43/2/3 39/2/3 42/2/3
f 44/2/3 41/2/3 40/2/3
f 44/1/3 40/1/3 43/1/3
f 44/1/3 43/1/3 42/1/3
f 45/2/3 41/2/3 44/2/3
f 46/1/3 44/1/3 42/1/3
f 46/1/3 45/1/3 44/1/3
f 47/1/3 45/1/3 46/1/3
f 48/1/3 46/1/3 42/1/3
f 49/2/3 47/2/3 46/2/3
f 49/1/3 46/1/3 48/1/3
f 50/2/3 49/2/3 48/2/3
f 51/2/3 47/2/3 49/2/3
f 51/2/3 49/2/3 50/2/3
f 52/3/4 53/3/4 55/3/4
f 55/3/4 53/3/4 56/3/4
f 53/1/4 54/1/4 57/1/4
f 56/3/4 53/3/4 57/3/4
f 55/2/4 56/2/4 58/2/4
f 56/1/4 57/1/4 59/1/4
f 58/2/4 56/2/4 59/2/4
f 58/1/4 59/1/4 60/1/4
f 59/1/4 57/1/4 61/1/4
f 60/1/4 59/1/4 61/1/4
f 61/1/4 57/1/4 62/1/4
f 57/1/4 54/1/4 63/1/4
f 62/1/4 57/1/4 63/1/4
f 60/2/4 61/2/4 64/2/4
f 61/1/4 62/1/4 65/1/4
f 64/2/4 61/2/4 65/2/4
f 62/2/4 63/2/4 66/2/4
f 65/1/4 62/1/4 66/1/4
f 64/1/4 65/1/4 66/1/4
f 66/2/4 63/2/4 67/2/4
f 66/1/4 67/1/4 68/1/4
f 68/1/4 67/1/4 69/1/4
f 66/1/4 68/1/4 70/1/4
f 68/3/4 69/3/4 70/3/4
f 70/3/4 69/3/4 71/3/4
f 64/1/4 66/1/4 72/1/4
f 66/1/4 70/1/4 72/1/4
f 70/1/4 71/1/4 72/1/4
f 72/1/4 71/1/4 73/1/4
f 79/1/5 77/1/5 76/1/5
f 80/2/5 78/2/5 77/2/5
f 80/1/5 77/1/5 79/1/5
f 81/2/5 78/2/5 80/2/5
f 82/1/5 75/1/5 74/1/5
f 83/1/5 75/1/5 82/1/5
f 84/2/5 78/2/5 81/2/5
f 84/3/5 80/3/5 79/3/5
f 84/3/5 81/3/5 80/3/5
f 85/2/5 78/2/5 84/2/5
f 86/1/5 75/1/5 83/1/5
f 87/2/5 76/2/5 75/2/5
f 87/1/5 75/1/5 86/1/5
f 88/1/5 79/1/5 76/1/5
f 88/2/5 76/2/5 87/2/5
f 89/1/5 79/1/5 88/1/5
f 90/3/5 84/3/5 79/3/5
f 90/1/5 79/1/5 89/1/5
f 91/1/5 85/1/5 84/1/5
f 91/3/5 84/3/5 90/3/5
f 92/3/5 87/3/5 86/3/5
f 92/3/5 89/3/5 88/3/5
f 92/3/5 88/3/5 87/3/5
f 93/1/5 91/1/5 90/1/5
f 93/3/5 89/3/5 92/3/5
f 93/1/5 90/1/5 89/1/5
f 94/1/5 91/1/5 93/1/5
f 95/1/5 86/1/5 83/1/5
f 95/3/5 92/3/5 86/3/5
f 96/2/5 94/2/5 93/2/5
f 96/3/5 92/3/5 95/3/5
f 96/2/5 93/2/5 92/2/5
f 97/2/5 83/2/5 82/2/5
f 98/1/5 95/1/5 83/1/5
f 98/2/5 83/2/5 97/2/5
f 98/1/5 96/1/5 95/1/5
f 99/1/5 91/1/5 94/1/5
f 100/1/5 91/1/5 99/1/5
f 101/1/5 96/1/5 98/1/5
f 101/2/5 94/2/5 96/2/5
f 101/1/5 98/1/5 97/1/5
f 102/1/5 99/1/5 94/1/5
f 102/2/5 94/2/5 101/2/5
f 103/1/5 101/1/5 97/1/5
f 103/1/5 102/1/5 101/1/5
f 104/1/5 102/1/5 103/1/5
f 105/1/5 102/1/5 104/1/5
f 106/1/5 102/1/5 105/1/5
f 107/3/5 104/3/5 103/3/5
f 108/1/5 105/1/5 104/1/5
f 108/3/5 104/3/5 107/3/5
f 109/1/5 105/1/5 108/1/5
f 110/1/5 103/1/5 97/1/5
f 110/3/5 107/3/5 103/3/5
f 111/2/5 109/2/5 108/2/5
f 111/3/5 107/3/5 110/3/5
f 111/2/5 108/2/5 107/2/5
f 112/1/5 111/1/5 110/1/5
f 112/2/5 109/2/5 111/2/5
f 113/1/5 105/1/5 109/1/5
f 113/2/5 109/2/5 112/2/5
f 114/3/5 100/3/5 99/3/5
f 115/1/5 91/1/5 100/1/5
f 115/3/5 100/3/5 114/3/5
f 116/1/5 91/1/5 115/1/5
f 117/3/5 114/3/5 99/3/5
f 117/1/5 99/1/5 102/1/5
f 117/1/5 102/1/5 106/1/5
f 118/2/5 116/2/5 115/2/5
f 118/3/5 114/3/5 117/3/5
f 118/2/5 115/2/5 114/2/5
f 119/1/5 117/1/5 106/1/5
f 119/1/5 118/1/5 117/1/5
f 120/1/5 118/1/5 119/1/5
f 121/1/5 105/1/5 113/1/5
f 121/1/5 113/1/5 112/1/5
f 121/3/5 106/3/5 105/3/5
f 122/1/5 119/1/5 106/1/5
f 122/3/5 106/3/5 121/3/5
f 123/1/5 112/1/5 110/1/5
f 123/1/5 110/1/5 97/1/5
f 123/1/5 122/1/5 121/1/5
f 123/1/5 121/1/5 112/1/5
f 124/1/5 122/1/5 123/1/5
f 125/1/5 122/1/5 124/1/5
f 126/1/5 119/1/5 122/1/5
f 126/1/5 122/1/5 125/1/5
f 126/3/5 120/3/5 119/3/5
f 127/1/5 118/1/5 120/1/5
f 127/2/5 116/2/5 118/2/5
f 128/1/5 91/1/5 116/1/5
f 128/2/5 116/2/5 127/2/5
f 129/1/5 125/1/5 124/1/5
f 130/2/5 126/2/5 125/2/5
f 130/1/5 125/1/5 129/1/5
f 131/2/5 126/2/5 130/2/5
f 132/1/5 128/1/5 127/1/5
f 133/1/5 85/1/5 91/1/5
f 133/1/5 128/1/5 132/1/5
f 133/1/5 91/1/5 128/1/5
f 134/1/5 123/1/5 97/1/5
f 135/2/5 124/2/5 123/2/5
f 135/1/5 123/1/5 134/1/5
f 136/2/5 124/2/5 135/2/5
f 137/3/5 120/3/5 126/3/5
f 137/2/5 126/2/5 131/2/5
f 138/3/5 120/3/5 137/3/5
f 139/1/5 127/1/5 120/1/5
f 139/3/5 120/3/5 138/3/5
f 139/1/5 132/1/5 127/1/5
f 140/1/5 129/1/5 124/1/5
f 140/3/5 131/3/5 130/3/5
f 140/3/5 130/3/5 129/3/5
f 141/3/5 131/3/5 140/3/5
f 142/2/5 138/2/5 137/2/5
f 142/3/5 131/3/5 141/3/5
f 142/2/5 137/2/5 131/2/5
f 143/1/5 132/1/5 139/1/5
f 143/1/5 139/1/5 138/1/5
f 143/3/5 133/3/5 132/3/5
f 144/3/5 133/3/5 143/3/5
f 145/3/5 136/3/5 135/3/5
f 145/3/5 135/3/5 134/3/5
f 146/2/5 124/2/5 136/2/5
f 146/3/5 136/3/5 145/3/5
f 147/1/5 141/1/5 140/1/5
f 147/2/5 124/2/5 146/2/5
f 147/1/5 140/1/5 124/1/5
f 148/2/5 142/2/5 141/2/5
f 148/1/5 141/1/5 147/1/5
f 149/1/5 143/1/5 138/1/5
f 149/2/5 142/2/5 148/2/5
f 149/2/5 138/2/5 142/2/5
f 149/1/5 144/1/5 143/1/5
f 150/1/5 144/1/5 149/1/5
f 152/2/6 153/2/6 156/2/6
f 153/1/6 154/1/6 156/1/6
f 154/2/6 155/2/6 157/2/6
f 156/1/6 154/1/6 157/1/6
f 157/2/6 155/2/6 158/2/6
f 158/2/6 155/2/6 159/2/6
f 159/2/6 155/2/6 160/2/6
f 151/1/6 152/1/6 161/1/6
f 161/1/6 152/1/6 162/1/6
f 152/2/6 156/2/6 163/2/6
f 162/1/6 152/1/6 163/1/6
f 163/2/6 156/2/6 164/2/6
f 156/3/6 157/3/6 165/3/6
f 164/2/6 156/2/6 165/2/6
f 157/3/6 158/3/6 165/3/6
f 161/2/6 162/2/6 166/2/6
f 163/1/6 164/1/6 166/1/6
f 162/1/6 163/1/6 166/1/6
f 166/1/6 164/1/6 167/1/6
f 165/3/6 158/3/6 168/3/6
f 164/3/6 165/3/6 168/3/6
f 158/2/6 159/2/6 168/2/6
f 159/3/6 160/3/6 169/3/6
f 168/2/6 159/2/6 169/2/6
f 167/1/6 164/1/6 170/1/6
f 166/3/6 167/3/6 170/3/6
f 164/3/6 168/3/6 171/3/6
f 170/1/6 164/1/6 171/1/6
f 151/1/6 161/1/6 172/1/6
f 161/2/6 166/2/6 172/2/6
f 172/2/6 166/2/6 173/2/6
f 166/3/6 170/3/6 174/3/6
f 173/2/6 166/2/6 174/2/6
f 171/3/6 168/3/6 175/3/6
f 170/2/6 171/2/6 175/2/6
f 175/3/6 168/3/6 176/3/6
f 168/1/6 169/1/6 177/1/6
f 176/3/6 168/3/6 177/3/6
f 169/3/6 160/3/6 178/3/6
f 177/1/6 169/1/6 178/1/6
f 176/1/6 177/1/6 178/1/6
f 178/3/6 160/3/6 179/3/6
f 176/1/6 178/1/6 180/1/6
f 178/1/6 179/1/6 180/1/6
f 180/1/6 179/1/6 181/1/6
f 173/3/6 174/3/6 182/3/6
f 172/1/6 173/1/6 182/1/6
f 174/3/6 170/3/6 183/3/6
f 182/3/6 174/3/6 183/3/6
f 170/2/6 175/2/6 184/2/6
f 183/3/6 170/3/6 184/3/6
f 175/2/6 176/2/6 184/2/6
f 176/1/6 180/1/6 185/1/6
f 180/2/6 181/2/6 185/2/6
f 181/1/6 179/1/6 186/1/6
f 185/2/6 181/2/6 186/2/6
f 183/2/6 184/2/6 187/2/6
f 187/2/6 184/2/6 188/2/6
f 176/1/6 185/1/6 189/1/6
f 185/1/6 186/1/6 189/1/6
f 189/1/6 186/1/6 190/1/6
f 190/1/6 186/1/6 191/1/6
f 186/1/6 179/1/6 192/1/6
f 191/1/6 186/1/6 192/1/6
f 184/2/6 176/2/6 193/2/6
f 188/2/6 184/2/6 193/2/6
f 176/1/6 189/1/6 194/1/6
f 193/2/6 176/2/6 194/2/6
f 189/2/6 190/2/6 195/2/6
f 194/1/6 189/1/6 195/1/6
f 190/1/6 191/1/6 196/1/6
f 195/2/6 190/2/6 196/2/6
f 191/2/6 192/2/6 197/2/6
f 196/1/6 191/1/6 197/1/6
f 197/2/6 192/2/6 198/2/6
f 182/1/6 183/1/6 199/1/6
f 183/2/6 187/2/6 199/2/6
f 187/3/6 188/3/6 200/3/6
f 199/2/6 187/2/6 200/2/6
f 188/2/6 193/2/6 201/2/6
f 200/3/6 188/3/6 201/3/6
f 194/3/6 195/3/6 202/3/6
f 201/2/6 193/2/6 202/2/6
f 193/3/6 194/3/6 202/3/6
f 172/1/6 182/1/6 203/1/6
f 151/1/6 172/1/6 203/1/6
f 182/1/6 199/1/6 203/1/6
f 199/1/6 200/1/6 203/1/6
f 203/1/6 200/1/6 204/1/6
f 202/3/6 195/3/6 205/3/6
f 201/1/6 202/1/6 205/1/6
f 195/2/6 196/2/6 206/2/6
f 205/3/6 195/3/6 206/3/6
f 196/3/6 197/3/6 207/3/6
f 206/2/6 196/2/6 207/2/6
f 197/3/6 198/3/6 207/3/6
f 207/3/6 198/3/6 208/3/6
f 198/2/6 192/2/6 209/2/6
f 208/3/6 198/3/6 209/3/6
f 204/1/6 200/1/6 210/1/6
f 210/1/6 200/1/6 211/1/6
f 200/3/6 201/3/6 212/3/6
f 211/1/6 200/1/6 212/1/6
f 201/1/6 205/1/6 213/1/6
f 212/3/6 201/3/6 213/3/6
f 205/1/6 206/1/6 213/1/6
f 206/2/6 207/2/6 214/2/6
f 213/1/6 206/1/6 214/1/6
f 207/1/6 208/1/6 215/1/6
f 214/2/6 207/2/6 215/2/6
f 213/1/6 214/1/6 216/1/6
f 212/1/6 213/1/6 216/1/6
f 214/1/6 215/1/6 216/1/6
f 216/1/6 215/1/6 217/1/6
f 203/3/6 204/3/6 218/3/6
f 204/1/6 210/1/6 218/1/6
f 210/2/6 211/2/6 219/2/6
f 218/1/6 210/1/6 219/1/6
f 217/1/6 215/1/6 220/1/6
f 216/3/6 217/3/6 220/3/6
f 220/1/6 215/1/6 221/1/6
f 219/2/6 211/2/6 222/2/6
f 218/3/6 219/3/6 222/3/6
f 222/2/6 211/2/6 223/2/6
f 211/1/6 212/1/6 224/1/6
f 223/2/6 211/2/6 224/2/6
f 212/1/6 216/1/6 224/1/6
f 223/1/6 224/1/6 225/1/6
f 216/3/6 220/3/6 226/3/6
f 225/1/6 224/1/6 226/1/6
f 224/1/6 216/1/6 226/1/6
f 215/1/6 208/1/6 227/1/6
f 221/1/6 215/1/6 227/1/6
f 208/2/6 209/2/6 227/2/6
f 209/2/6 192/2/6 228/2/6
f 227/2/6 209/2/6 228/2/6
f 221/1/6 227/1/6 229/1/6
f 227/1/6 228/1/6 229/1/6
f 229/1/6 228/1/6 230/1/6
f 226/3/6 220/3/6 231/3/6
f 225/2/6 226/2/6 231/2/6
f 231/3/6 220/3/6 232/3/6
f 232/3/6 220/3/6 233/3/6
f 220/2/6 221/2/6 234/2/6
f 233/3/6 220/3/6 234/3/6
f 230/1/6 228/1/6 235/1/6
f 229/2/6 230/2/6 235/2/6
f 235/1/6 228/1/6 236/1/6
f 222/3/6 223/3/6 237/3/6
f 203/3/6 218/3/6 237/3/6
f 218/3/6 222/3/6 237/3/6
f 223/1/6 225/1/6 238/1/6
f 237/3/6 223/3/6 238/3/6
f 229/2/6 235/2/6 239/2/6
f 221/1/6 229/1/6 239/1/6
f 239/2/6 235/2/6 240/2/6
f 235/3/6 236/3/6 241/3/6
f 240/2/6 235/2/6 241/2/6
f 238/1/6 225/1/6 242/1/6
f 237/1/6 238/1/6 242/1/6
f 225/2/6 231/2/6 242/2/6
f 231/2/6 232/2/6 242/2/6
f 232/1/6 233/1/6 243/1/6
f 242/2/6 232/2/6 243/2/6
f 237/1/6 242/1/6 244/1/6
f 242/1/6 243/1/6 244/1/6
f 233/2/6 234/2/6 245/2/6
f 244/1/6 243/1/6 245/1/6
f 243/1/6 233/1/6 245/1/6
f 234/2/6 221/2/6 246/2/6
f 245/2/6 234/2/6 246/2/6
f 239/1/6 240/1/6 246/1/6
f 221/1/6 239/1/6 246/1/6
f 240/3/6 241/3/6 247/3/6
f 246/1/6 240/1/6 247/1/6
f 236/1/6 228/1/6 248/1/6
f 247/3/6 241/3/6 248/3/6
f 241/3/6 236/3/6 248/3/6
f 248/1/6 228/1/6 249/1/6
